<svg width="14" height="14" viewBox="0 0 14 14" fill="none" xmlns="http://www.w3.org/2000/svg">
<path d="M9.21701 5.74001L8.09701 6.41668C7.70033 6.65001 7.28033 6.86001 6.88368 7.04668C6.76701 7.09336 6.62701 7.16336 6.48701 7.23336C5.99701 7.49003 5.74033 8.02668 5.85701 8.56336C5.95033 8.98336 6.30033 9.33336 6.72033 9.42668C6.81366 9.45 6.90701 9.45 7.00033 9.45C7.44366 9.45 7.84033 9.19333 8.05033 8.79668C8.09701 8.68 8.16701 8.54 8.23701 8.40001C8.44701 8.00333 8.63368 7.58333 8.86701 7.18668L9.54368 6.06669C9.59036 5.97336 9.56701 5.88001 9.49701 5.78669C9.42701 5.69333 9.31033 5.69333 9.21701 5.74001ZM8.47033 6.93001C8.21366 7.35001 8.00366 7.77001 7.81701 8.19001C7.77033 8.33 7.70033 8.44668 7.63033 8.58668C7.49033 8.89 7.16366 9.03 6.83701 8.96C6.58033 8.91333 6.37033 8.70333 6.32368 8.44668C6.25368 8.12001 6.39368 7.79336 6.69701 7.65336C6.81368 7.58336 6.95368 7.53668 7.09368 7.46668C7.51368 7.25668 7.95701 7.04668 8.35368 6.81336L8.65701 6.62668L8.47033 6.93001Z" fill="url(#paint0_linear)"/>
<path d="M13.5001 5.69319C13.4972 5.67747 13.4927 5.66185 13.4867 5.64665C13.4806 5.63139 13.4728 5.61742 13.4638 5.60462C13.1141 4.76747 12.6062 4.01144 11.9777 3.37433C11.9689 3.36115 11.9585 3.34852 11.9467 3.33665C11.9348 3.32478 11.9222 3.31447 11.909 3.30561C10.6431 2.05696 8.90761 1.28333 7 1.28333C6.08623 1.28333 5.21202 1.46106 4.40986 1.7832C4.39414 1.78615 4.37853 1.79058 4.36335 1.79665C4.34812 1.80275 4.33412 1.81051 4.32132 1.81954C3.48417 2.16918 2.72814 2.67717 2.09103 3.30561C2.07785 3.31447 2.06522 3.32478 2.05335 3.33665C2.04148 3.34852 2.03115 3.36115 2.02232 3.37433C0.773637 4.64024 0 6.37572 0 8.28333C0 9.87 0.513324 11.3867 1.51668 12.6233C1.56335 12.6933 1.63335 12.7166 1.70335 12.7166H12.2967C12.3667 12.7166 12.4367 12.6933 12.4834 12.6233C13.4867 11.3867 14 9.87 14 8.28333C14 7.36955 13.8223 6.49534 13.5001 5.69319ZM12.2033 12.25H1.82C1.50448 11.8431 1.24245 11.4066 1.03537 10.948L1.68 10.6867C1.79668 10.64 1.84332 10.5 1.79668 10.3834C1.75 10.2667 1.61 10.22 1.49335 10.2667L0.861437 10.5229C0.626992 9.8846 0.495195 9.20979 0.471023 8.51668H2.1C2.24 8.51668 2.33332 8.42335 2.33332 8.28335C2.33332 8.14335 2.24 8.05 2.1 8.05H0.471324C0.497492 7.31426 0.646762 6.60857 0.899199 5.9529L1.54 6.23C1.56332 6.25332 1.61 6.25332 1.63332 6.25332C1.72665 6.25332 1.79665 6.20665 1.84332 6.11333C1.89 5.99665 1.84332 5.85665 1.72665 5.81L1.07937 5.53008C1.37192 4.9058 1.76039 4.33459 2.22567 3.83567L2.70665 4.31665C2.75332 4.36333 2.79997 4.38665 2.86997 4.38665C2.93997 4.38665 2.98665 4.36333 3.0333 4.31665C3.12662 4.22333 3.12662 4.08333 3.0333 3.98997L2.55232 3.509C3.07505 3.02151 3.677 2.61811 4.33634 2.32124L4.59665 2.96333C4.61997 3.05665 4.71332 3.10333 4.80665 3.10333C4.82997 3.10333 4.85332 3.10333 4.89997 3.08C5.01665 3.03333 5.0633 2.89333 5.01665 2.77668L4.76156 2.14744C5.39104 1.91603 6.06528 1.77961 6.76665 1.75468V3.38335C6.76665 3.52335 6.85997 3.61668 6.99997 3.61668C7.13997 3.61668 7.2333 3.52335 7.2333 3.38335V1.75465C7.96904 1.78082 8.67472 1.93009 9.3304 2.18252L9.0533 2.82335C9.00662 2.94003 9.0533 3.08003 9.16997 3.12668C9.1933 3.15 9.23997 3.15 9.2633 3.15C9.35662 3.15 9.44997 3.08 9.4733 3.01L9.75321 2.36272C10.3775 2.65527 10.9487 3.04374 11.4476 3.50902L10.9666 3.99C10.8733 4.08333 10.8733 4.22333 10.9666 4.31668C11.0133 4.36335 11.06 4.38668 11.13 4.38668C11.1766 4.38668 11.2466 4.36335 11.2933 4.31668L11.7743 3.8357C12.2618 4.35843 12.6652 4.96038 12.962 5.61972L12.3199 5.88003C12.2033 5.9267 12.1566 6.0667 12.2033 6.18335C12.2266 6.27668 12.3199 6.32335 12.4133 6.32335C12.4366 6.32335 12.4599 6.30003 12.5066 6.30003L13.1359 6.04494C13.3673 6.67442 13.5037 7.34866 13.5286 8.05003H11.9C11.76 8.05003 11.6667 8.14335 11.6667 8.28335C11.6667 8.42335 11.76 8.51668 11.9 8.51668H13.529C13.5037 9.24383 13.3602 9.95086 13.1074 10.6166L12.46 10.3367C12.3433 10.29 12.2033 10.3367 12.1567 10.4534C12.11 10.57 12.1567 10.71 12.2734 10.7567L12.9291 11.0402C12.7325 11.4652 12.4899 11.8705 12.2033 12.25Z" fill="url(#paint1_linear)"/>
<defs>
<linearGradient id="paint0_linear" x1="7.69853" y1="5.70935" x2="7.69853" y2="9.45" gradientUnits="userSpaceOnUse">
<stop offset="0.143646" stop-color="#29274E"/>
<stop offset="1" stop-color="#105AD1"/>
</linearGradient>
<linearGradient id="paint1_linear" x1="7" y1="1.28333" x2="7" y2="12.7166" gradientUnits="userSpaceOnUse">
<stop offset="0.143646" stop-color="#29274E"/>
<stop offset="1" stop-color="#105AD1"/>
</linearGradient>
</defs>
</svg>
