<svg width="74" height="74" viewBox="0 0 74 74" fill="none" xmlns="http://www.w3.org/2000/svg">
<path d="M63.3851 74.0001H2.8595C1.67204 74.0001 0.709457 73.0375 0.709457 71.85V37.1325C0.709457 35.945 1.67204 34.9824 2.8595 34.9824C4.04697 34.9824 5.00955 35.945 5.00955 37.1325V69.7H61.2352V64.9546C61.2352 63.7671 62.198 62.8045 63.3853 62.8045C64.5726 62.8045 65.5353 63.7671 65.5353 64.9546V71.85C65.5352 73.0375 64.5725 74.0001 63.3851 74.0001Z" fill="#F15642"/>
<path d="M2.85953 25.5998V24.9075L25.3769 2.15015V25.5998H2.85953Z" fill="#FAC2BB"/>
<path d="M71.1404 31.7153H28.3503V55.3679H71.1404V31.7153Z" fill="#FAC2BB"/>
<path d="M71.1404 29.5652H65.5352V2.15005C65.5352 0.962578 64.5725 0 63.3852 0H25.3769C25.3505 0 25.3245 0.00303516 25.298 0.00390234C25.2739 0.00476953 25.25 0.00578125 25.226 0.00751563C25.1331 0.0141641 25.0407 0.0245703 24.9501 0.0429258C24.9482 0.0433594 24.9462 0.0439375 24.944 0.0443711C24.8549 0.062582 24.7677 0.0884531 24.6817 0.117937C24.6593 0.125742 24.6371 0.133691 24.6148 0.142074C24.5303 0.17416 24.4473 0.209859 24.3675 0.252207C24.3648 0.253652 24.3614 0.254809 24.3587 0.256543C24.2766 0.300625 24.1986 0.351934 24.1224 0.406855C24.1029 0.42102 24.0837 0.435184 24.0646 0.45007C23.9891 0.508172 23.916 0.569598 23.8482 0.637961L1.33111 23.395C1.28052 23.446 1.23312 23.4992 1.18831 23.5545C1.15839 23.5913 1.13223 23.6298 1.10506 23.6679C1.09177 23.6868 1.07688 23.7049 1.06416 23.7239C1.03323 23.7708 1.00563 23.8193 0.978598 23.8682C0.971949 23.8802 0.964145 23.8916 0.95793 23.9036C0.931481 23.9537 0.9085 24.0049 0.886387 24.0562C0.881039 24.0686 0.874535 24.0805 0.869621 24.0932C0.849387 24.1425 0.832621 24.1928 0.816289 24.2432C0.811086 24.2594 0.804727 24.2749 0.799957 24.2909C0.786227 24.3373 0.775387 24.3843 0.764981 24.4313C0.760211 24.4525 0.753996 24.4736 0.74966 24.4952C0.741278 24.5385 0.73593 24.5825 0.730293 24.6262C0.726824 24.6518 0.722055 24.677 0.719598 24.7028C0.715551 24.7466 0.714684 24.7906 0.713094 24.8347C0.712227 24.8588 0.709625 24.8826 0.709625 24.9066V25.5992C0.709625 26.7867 1.6722 27.7493 2.85967 27.7493H25.3771C26.5645 27.7493 27.5271 26.7867 27.5271 25.5992V4.30009H61.2354V29.5652H28.3506C27.1632 29.5652 26.2006 30.5277 26.2006 31.7152V55.3669C26.2006 56.5544 27.1632 57.5169 28.3506 57.5169H71.1404C72.3278 57.5169 73.2905 56.5544 73.2905 55.3669V31.7152C73.2905 30.5277 72.3278 29.5652 71.1404 29.5652ZM7.32641 23.4496L23.2269 7.37977V23.4496H7.32641ZM68.9904 53.2168H30.5007V33.8653H68.9905V53.2168H68.9904Z" fill="#F15642"/>
<path d="M34 39.1708C34 38.6109 34.4412 38 35.1517 38H39.0693C41.2752 38 43.2605 39.4763 43.2605 42.3057C43.2605 44.9868 41.2752 46.48 39.0693 46.48H36.2377V48.7198C36.2377 49.4664 35.7626 49.8885 35.1517 49.8885C34.5918 49.8885 34 49.4664 34 48.7198V39.1708ZM36.2377 40.1359V44.3611H39.0693C40.2062 44.3611 41.1055 43.3578 41.1055 42.3057C41.1055 41.1201 40.2062 40.1359 39.0693 40.1359H36.2377Z" fill="white"/>
<path d="M46.5821 49.8884C46.0221 49.8884 45.4113 49.583 45.4113 48.8385V39.2046C45.4113 38.5959 46.0221 38.1526 46.5821 38.1526H50.4658C58.2161 38.1526 58.0464 49.8884 50.6185 49.8884H46.5821ZM47.6511 40.2227V47.8204H50.4658C55.0451 47.8204 55.2487 40.2227 50.4658 40.2227H47.6511Z" fill="white"/>
<path d="M60.7952 40.3584V43.0543H65.12C65.7309 43.0543 66.3418 43.6651 66.3418 44.2569C66.3418 44.8169 65.7309 45.275 65.12 45.275H60.7952V48.8363C60.7952 49.4302 60.3731 49.8862 59.7792 49.8862C59.0326 49.8862 58.5766 49.4302 58.5766 48.8363V39.2024C58.5766 38.5937 59.0347 38.1504 59.7792 38.1504H65.733C66.4796 38.1504 66.9208 38.5937 66.9208 39.2024C66.9208 39.7454 66.4796 40.3563 65.733 40.3563H60.7952V40.3584Z" fill="white"/>
</svg>
