<svg width="74" height="74" viewBox="0 0 74 74" fill="none" xmlns="http://www.w3.org/2000/svg">
<path d="M63.3851 74.0001H2.85949C1.67202 74.0001 0.709442 73.0375 0.709442 71.85V37.1325C0.709442 35.945 1.67202 34.9824 2.85949 34.9824C4.04696 34.9824 5.00954 35.945 5.00954 37.1325V69.7H61.2352V64.9546C61.2352 63.7671 62.1979 62.8045 63.3853 62.8045C64.5726 62.8045 65.5353 63.7671 65.5353 64.9546V71.85C65.5352 73.0375 64.5724 74.0001 63.3851 74.0001Z" fill="#507C5C"/>
<path d="M2.85953 25.5998V24.9075L25.3769 2.15015V25.5998H2.85953Z" fill="#CFF09E"/>
<path d="M71.1404 31.7153H28.3503V55.3679H71.1404V31.7153Z" fill="#CFF09E"/>
<path d="M71.1404 29.5652H65.5352V2.15005C65.5352 0.962578 64.5725 0 63.3852 0H25.3769C25.3505 0 25.3245 0.00303516 25.298 0.00390234C25.2739 0.00476953 25.25 0.00578125 25.226 0.00751563C25.1331 0.0141641 25.0407 0.0245703 24.9501 0.0429258C24.9482 0.0433594 24.9462 0.0439375 24.944 0.0443711C24.8549 0.062582 24.7677 0.0884531 24.6817 0.117937C24.6593 0.125742 24.6371 0.133691 24.6148 0.142074C24.5303 0.17416 24.4473 0.209859 24.3675 0.252207C24.3648 0.253652 24.3614 0.254809 24.3587 0.256543C24.2766 0.300625 24.1986 0.351934 24.1224 0.406855C24.1029 0.42102 24.0837 0.435184 24.0646 0.45007C23.9891 0.508172 23.916 0.569598 23.8482 0.637961L1.33111 23.395C1.28052 23.446 1.23312 23.4992 1.18831 23.5545C1.15839 23.5913 1.13223 23.6298 1.10506 23.6679C1.09177 23.6868 1.07688 23.7049 1.06416 23.7239C1.03323 23.7708 1.00563 23.8193 0.978598 23.8682C0.971949 23.8802 0.964145 23.8916 0.95793 23.9036C0.931481 23.9537 0.9085 24.0049 0.886387 24.0562C0.881039 24.0686 0.874535 24.0805 0.869621 24.0932C0.849387 24.1425 0.832621 24.1928 0.816289 24.2432C0.811086 24.2594 0.804727 24.2749 0.799957 24.2909C0.786227 24.3373 0.775387 24.3843 0.764981 24.4313C0.760211 24.4525 0.753996 24.4736 0.74966 24.4952C0.741278 24.5385 0.73593 24.5825 0.730293 24.6262C0.726824 24.6518 0.722055 24.677 0.719598 24.7028C0.715551 24.7466 0.714684 24.7906 0.713094 24.8347C0.712227 24.8588 0.709625 24.8826 0.709625 24.9066V25.5992C0.709625 26.7867 1.6722 27.7493 2.85967 27.7493H25.3771C26.5645 27.7493 27.5271 26.7867 27.5271 25.5992V4.30009H61.2354V29.5652H28.3506C27.1632 29.5652 26.2006 30.5277 26.2006 31.7152V55.3669C26.2006 56.5544 27.1632 57.5169 28.3506 57.5169H71.1404C72.3278 57.5169 73.2905 56.5544 73.2905 55.3669V31.7152C73.2905 30.5277 72.3278 29.5652 71.1404 29.5652ZM7.32641 23.4496L23.2269 7.37977V23.4496H7.32641ZM68.9904 53.2168H30.5007V33.8653H68.9905V53.2168H68.9904Z" fill="#507C5C"/>
<path d="M36.9554 45.3646L34.6324 49.3106C34.5209 49.4856 34.2982 49.5651 34.0437 49.5651C33.3595 49.5651 32.3888 49.0241 32.3888 48.3401C32.3888 48.1968 32.4365 48.0537 32.5322 47.8946L35.2849 43.6464L32.6436 39.4141C32.5322 39.2391 32.4845 39.0799 32.4845 38.9208C32.4845 38.2526 33.3914 37.7432 34.0917 37.7432C34.4417 37.7432 34.6804 37.8705 34.8395 38.1568L36.9557 41.8481L39.0718 38.1568C39.2309 37.8705 39.4698 37.7432 39.8197 37.7432C40.5199 37.7432 41.4269 38.2523 41.4269 38.9208C41.4269 39.0799 41.3789 39.2391 41.2678 39.4141L38.6265 43.6464L41.3792 47.8946C41.4746 48.0537 41.5225 48.197 41.5225 48.3401C41.5225 49.0243 40.5519 49.5651 39.8677 49.5651C39.6132 49.5651 39.3744 49.4856 39.2791 49.3106L36.9554 45.3646Z" fill="#507C5C"/>
<path d="M43.5899 49.4698C43.0488 49.4698 42.5078 49.2153 42.5078 48.7061V38.5864C42.5078 38.0613 43.1285 37.8386 43.7487 37.8386C44.3695 37.8386 44.9897 38.0613 44.9897 38.5864V47.3059H48.6174C49.0949 47.3059 49.3336 47.847 49.3336 48.388C49.3336 48.9289 49.0949 49.4699 48.6174 49.4699H43.5897V49.4698H43.5899Z" fill="#507C5C"/>
<path d="M55.1088 46.3512C55.1088 44.4259 50.0648 44.7599 50.0648 41.0367C50.0648 38.65 52.1493 37.7432 54.138 37.7432C54.9815 37.7432 57.3046 37.9023 57.3046 39.1435C57.3046 39.5731 57.0182 40.4482 56.3178 40.4482C55.7451 40.4482 55.4427 39.8436 54.1379 39.8436C53.0082 39.8436 52.5469 40.305 52.5469 40.7983C52.5469 42.3896 57.5909 42.0872 57.5909 46.0968C57.5909 48.388 55.9201 49.6291 53.6129 49.6291C51.5287 49.6291 49.7784 48.6109 49.7784 47.5606C49.7784 47.0195 50.2559 46.224 50.8603 46.224C51.6083 46.224 52.0854 47.4016 53.5652 47.4016C54.2974 47.4015 55.1088 47.115 55.1088 46.3512Z" fill="#507C5C"/>
<path d="M62.6504 45.3646L60.3273 49.3106C60.2157 49.4856 59.993 49.5651 59.7386 49.5651C59.0543 49.5651 58.0839 49.0241 58.0839 48.3401C58.0839 48.1968 58.1316 48.0537 58.2271 47.8946L60.9799 43.6464L58.3386 39.4141C58.2271 39.2391 58.1794 39.0799 58.1794 38.9208C58.1794 38.2526 59.0865 37.7432 59.7866 37.7432C60.1367 37.7432 60.3753 37.8705 60.5346 38.1568L62.6508 41.8481L64.767 38.1568C64.9259 37.8705 65.1648 37.7432 65.5148 37.7432C66.2151 37.7432 67.122 38.2523 67.122 38.9208C67.122 39.0799 67.0743 39.2391 66.9629 39.4141L64.3217 43.6464L67.0745 47.8946C67.1698 48.0537 67.2177 48.197 67.2177 48.3401C67.2177 49.0243 66.2469 49.5651 65.5629 49.5651C65.3081 49.5651 65.0695 49.4856 64.9743 49.3106L62.6504 45.3646Z" fill="#507C5C"/>
</svg>
