<svg width="559" height="193" viewBox="0 0 559 193" fill="none" xmlns="http://www.w3.org/2000/svg">
<path d="M6.40869 62H0.72135V61.2071L3.72598 57.8686C4.17111 57.3639 4.47714 56.9545 4.64407 56.6405C4.81496 56.3226 4.90041 55.9947 4.90041 55.6569C4.90041 55.2038 4.7633 54.8322 4.48906 54.5421C4.21483 54.2519 3.84919 54.1069 3.39214 54.1069C2.84367 54.1069 2.41642 54.2639 2.1104 54.5778C1.80834 54.8878 1.65732 55.3211 1.65732 55.8775H0.554426C0.554426 55.0786 0.810774 54.4328 1.32347 53.94C1.84014 53.4471 2.52969 53.2007 3.39214 53.2007C4.19893 53.2007 4.83682 53.4133 5.3058 53.8386C5.77478 54.2599 6.00927 54.8223 6.00927 55.5257C6.00927 56.3802 5.46478 57.3977 4.37579 58.5781L2.05078 61.0998H6.40869V62ZM13.0201 58.2979C13.0201 59.5895 12.7995 60.5494 12.3583 61.1773C11.9172 61.8053 11.2276 62.1192 10.2897 62.1192C9.36364 62.1192 8.67806 61.8132 8.23293 61.2011C7.7878 60.5851 7.55729 59.667 7.54139 58.4469V56.9744C7.54139 55.6986 7.76197 54.7507 8.20312 54.1307C8.64428 53.5107 9.33582 53.2007 10.2778 53.2007C11.2117 53.2007 11.8993 53.5008 12.3405 54.1009C12.7816 54.6971 13.0082 55.6191 13.0201 56.8671V58.2979ZM11.9172 56.7896C11.9172 55.8556 11.786 55.176 11.5237 54.7507C11.2614 54.3215 10.8461 54.1069 10.2778 54.1069C9.71339 54.1069 9.30204 54.3195 9.04371 54.7448C8.78537 55.17 8.65223 55.8238 8.64428 56.7061V58.4707C8.64428 59.4087 8.77941 60.1022 9.04967 60.5513C9.3239 60.9965 9.73724 61.219 10.2897 61.219C10.8342 61.219 11.2376 61.0084 11.4999 60.5871C11.7662 60.1658 11.9053 59.5021 11.9172 58.5959V56.7896Z" fill="#525252"/>
<path d="M4.34599 113H3.23713V105.649L1.01347 106.466V105.465L4.1731 104.278H4.34599V113ZM13.0201 109.298C13.0201 110.59 12.7995 111.549 12.3583 112.177C11.9172 112.805 11.2276 113.119 10.2897 113.119C9.36364 113.119 8.67806 112.813 8.23293 112.201C7.7878 111.585 7.55729 110.667 7.54139 109.447V107.974C7.54139 106.699 7.76197 105.751 8.20312 105.131C8.64428 104.511 9.33582 104.201 10.2778 104.201C11.2117 104.201 11.8993 104.501 12.3405 105.101C12.7816 105.697 13.0082 106.619 13.0201 107.867V109.298ZM11.9172 107.79C11.9172 106.856 11.786 106.176 11.5237 105.751C11.2614 105.321 10.8461 105.107 10.2778 105.107C9.71339 105.107 9.30204 105.32 9.04371 105.745C8.78537 106.17 8.65223 106.824 8.64428 107.706V109.471C8.64428 110.409 8.77941 111.102 9.04967 111.551C9.3239 111.996 9.73724 112.219 10.2897 112.219C10.8342 112.219 11.2376 112.008 11.4999 111.587C11.7662 111.166 11.9053 110.502 11.9172 109.596V107.79Z" fill="#525252"/>
<path d="M10.1643 160.298C10.1643 161.59 9.94369 162.549 9.50253 163.177C9.06138 163.805 8.37182 164.119 7.43387 164.119C6.50784 164.119 5.82225 163.813 5.37712 163.201C4.93199 162.585 4.70148 161.667 4.68558 160.447V158.974C4.68558 157.699 4.90616 156.751 5.34732 156.131C5.78847 155.511 6.48001 155.201 7.42194 155.201C8.35592 155.201 9.04349 155.501 9.48465 156.101C9.9258 156.697 10.1523 157.619 10.1643 158.867V160.298ZM9.06138 158.79C9.06138 157.856 8.93022 157.176 8.66791 156.751C8.4056 156.321 7.99028 156.107 7.42194 156.107C6.85758 156.107 6.44623 156.32 6.1879 156.745C5.92956 157.17 5.79642 157.824 5.78847 158.706V160.471C5.78847 161.409 5.9236 162.102 6.19386 162.551C6.46809 162.996 6.88143 163.219 7.43387 163.219C7.97836 163.219 8.38176 163.008 8.64407 162.587C8.91035 162.166 9.04945 161.502 9.06138 160.596V158.79Z" fill="#525252"/>
<path d="M131 134.312C106.331 137.098 49.3166 183.55 34.9999 193H558.66C560.495 184.877 555.796 161.766 522.317 134.312C480.468 99.995 442.474 107.953 417.695 102.482C392.917 97.0109 286.092 139.783 246.997 147.244C207.901 154.704 161.836 130.831 131 134.312Z" fill="#D9F2FF" fill-opacity="0.74"/>
<path d="M2.32501 6.12343H3.15367C3.67432 6.11548 4.08368 5.97837 4.38176 5.71208C4.67983 5.4458 4.82887 5.08612 4.82887 4.63304C4.82887 3.6156 4.32214 3.10688 3.30867 3.10688C2.83175 3.10688 2.45021 3.24399 2.16405 3.51823C1.88187 3.78848 1.74078 4.14817 1.74078 4.59727H0.637888C0.637888 3.9097 0.888274 3.33938 1.38905 2.8863C1.89379 2.42924 2.53367 2.20072 3.30867 2.20072C4.1274 2.20072 4.76926 2.41732 5.23426 2.85053C5.69926 3.28374 5.93177 3.88586 5.93177 4.65689C5.93177 5.03445 5.80856 5.4001 5.56215 5.75382C5.31971 6.10754 4.98785 6.37183 4.56657 6.5467C5.04349 6.69773 5.41112 6.94812 5.66946 7.29786C5.93177 7.64761 6.06292 8.07485 6.06292 8.5796C6.06292 9.35858 5.80856 9.9766 5.29984 10.4337C4.79112 10.8907 4.12938 11.1192 3.31463 11.1192C2.49989 11.1192 1.83616 10.8987 1.32347 10.4575C0.814748 10.0163 0.560388 9.43409 0.560388 8.71076H1.66924C1.66924 9.16781 1.81828 9.53345 2.11636 9.80769C2.41444 10.0819 2.81386 10.219 3.31463 10.219C3.8472 10.219 4.25458 10.0799 4.53676 9.80172C4.81894 9.52352 4.96003 9.12409 4.96003 8.60345C4.96003 8.0987 4.80503 7.7112 4.49503 7.44094C4.18502 7.17068 3.73791 7.03158 3.15367 7.02363H2.32501V6.12343ZM13.0201 7.29786C13.0201 8.58954 12.7995 9.54935 12.3583 10.1773C11.9172 10.8053 11.2276 11.1192 10.2897 11.1192C9.36364 11.1192 8.67806 10.8132 8.23293 10.2011C7.7878 9.58512 7.55729 8.66704 7.54139 7.4469V5.97439C7.54139 4.69862 7.76197 3.75073 8.20312 3.13072C8.64428 2.51072 9.33582 2.20072 10.2778 2.20072C11.2117 2.20072 11.8993 2.50078 12.3405 3.10092C12.7816 3.69707 13.0082 4.61913 13.0201 5.86709V7.29786ZM11.9172 5.78959C11.9172 4.85561 11.786 4.17599 11.5237 3.75073C11.2614 3.32149 10.8461 3.10688 10.2778 3.10688C9.71339 3.10688 9.30204 3.31951 9.04371 3.74477C8.78537 4.17002 8.65223 4.82381 8.64428 5.70612V7.47075C8.64428 8.4087 8.77941 9.10223 9.04967 9.55134C9.3239 9.99647 9.73724 10.219 10.2897 10.219C10.8342 10.219 11.2376 10.0084 11.4999 9.58711C11.7662 9.16582 11.9053 8.5021 11.9172 7.59594V5.78959Z" fill="#525252"/>
<path d="M64.5 179C114.623 132.078 279.402 147.992 347.992 109.438C402.985 78.5938 514.86 56.6406 531.5 23.5" stroke="#4CB449" stroke-width="1.73042" stroke-miterlimit="10"/>
<path d="M64.5 130.329C114.562 83.0526 158.949 121.072 293.325 78.0935C355.548 58.092 516.475 116.113 533.5 150" stroke="#01CBFE" stroke-width="1.73042" stroke-miterlimit="10"/>
<path fill-rule="evenodd" clip-rule="evenodd" d="M64.1008 125.053C66.8935 125.053 69.1934 127.354 69.1934 130.148C69.1934 132.941 66.8935 135.242 64.1008 135.242C61.3081 135.242 59.0083 132.941 59.0083 130.148C58.844 127.354 61.1439 125.053 64.1008 125.053Z" fill="#01CBFE"/>
<path fill-rule="evenodd" clip-rule="evenodd" d="M135.89 97.4448C138.683 97.4448 140.982 99.7455 140.982 102.704C140.982 105.497 138.683 107.798 135.89 107.798C133.097 107.798 130.633 105.497 130.633 102.704C130.633 99.7455 132.933 97.4448 135.89 97.4448Z" fill="#01CBFE"/>
<path fill-rule="evenodd" clip-rule="evenodd" d="M259.685 82C262.478 82 264.778 84.3007 264.778 87.0944C264.778 89.8881 262.478 92.3532 259.685 92.3532C256.893 92.3532 254.593 90.0525 254.593 87.0944C254.593 84.3007 256.893 82 259.685 82Z" fill="#01CBFE"/>
<path fill-rule="evenodd" clip-rule="evenodd" d="M403.685 80C406.478 80 408.778 82.3007 408.778 85.0944C408.778 87.8881 406.478 90.3532 403.685 90.3532C400.893 90.3532 398.593 88.0525 398.593 85.0944C398.593 82.3007 400.893 80 403.685 80Z" fill="#01CBFE"/>
<path fill-rule="evenodd" clip-rule="evenodd" d="M531.593 142C534.385 142 536.685 144.301 536.685 147.094C536.685 149.888 534.385 152.353 531.593 152.353C528.8 152.353 526.5 150.052 526.5 147.094C526.5 144.301 528.8 142 531.593 142Z" fill="#01CBFE"/>
</svg>
