<svg width="41" height="41" viewBox="0 0 41 41" fill="none" xmlns="http://www.w3.org/2000/svg">
<path d="M20.5 0C9.19649 0 0 9.19649 0 20.5C0 31.8035 9.19649 41 20.5 41C31.8035 41 41 31.8035 41 20.5C41 9.19649 31.8035 0 20.5 0ZM20.5 39.2917C10.1382 39.2917 1.70831 30.8618 1.70831 20.5C1.70831 10.1382 10.1382 1.70831 20.5 1.70831C30.8618 1.70831 39.2917 10.1382 39.2917 20.5C39.2917 30.8618 30.8618 39.2917 20.5 39.2917Z" fill="#979797"/>
<path d="M31.6042 19.6458H11.4578L17.6872 13.4163C18.0209 13.0826 18.0209 12.5421 17.6872 12.2085C17.3536 11.8748 16.813 11.8748 16.4794 12.2085L8.79192 19.896C8.45824 20.2297 8.45824 20.7702 8.79192 21.1038L16.4794 28.7913C16.6462 28.9581 16.8648 29.0416 17.0834 29.0416C17.3019 29.0416 17.5204 28.9581 17.6873 28.7913C18.021 28.4576 18.021 27.9171 17.6873 27.5835L11.4579 21.3541H31.6042C32.0763 21.3541 32.4584 20.972 32.4584 20.4999C32.4584 20.0277 32.0763 19.6458 31.6042 19.6458Z" fill="#979797"/>
</svg>
