<svg width="309" height="59" viewBox="0 0 309 59" fill="none" xmlns="http://www.w3.org/2000/svg">
<circle cx="8.11069" cy="12.032" r="5.33603" fill="#4CB449"/>
<path d="M6.3707 21.6602C5.34989 22.0314 5.71336 23.5162 6.02269 24.2122C6.40936 24.9468 7.2987 26.6946 7.76271 27.8082C8.34271 29.2002 8.22671 30.3602 9.03871 31.5202C9.85072 32.6802 11.2427 31.5202 13.3307 30.3602C15.4187 29.2002 18.7828 26.6482 22.2628 23.5162C25.7428 20.3842 26.9028 17.0201 27.7148 15.1641C28.3644 13.6793 27.1348 12.5348 26.4388 12.1481C25.0081 11.6841 21.8452 10.7097 20.6388 10.5241C19.1308 10.2921 19.1308 10.7561 16.8108 14.3521C14.4907 17.9481 7.6467 21.1962 6.3707 21.6602Z" fill="#49B747"/>
<circle cx="5.42826" cy="53.2678" r="5.33603" transform="rotate(-90.2674 5.42826 53.2678)" fill="#259DD9"/>
<path d="M15.0644 54.9628C15.4403 55.9819 16.9234 55.6115 17.618 55.2989C18.3508 54.9088 20.0944 54.0114 21.2058 53.5422C22.5951 52.9557 23.7557 53.0663 24.9119 52.2488C26.0681 51.4314 24.9016 50.0449 23.7318 47.9623C22.5621 45.8797 19.9944 42.5276 16.8462 39.0623C13.698 35.5969 10.3286 34.4526 8.46879 33.6493C6.98096 33.0066 5.84218 34.2415 5.45876 34.9393C5.00144 36.3722 4.0418 39.5396 3.86184 40.7469C3.63687 42.256 4.10087 42.2538 7.70768 44.557C11.3145 46.8602 14.5944 53.689 15.0644 54.9628Z" fill="#259DD9"/>
<circle cx="46.7741" cy="52.3603" r="5.33603" transform="rotate(178.552 46.7741 52.3603)" fill="#4CB449"/>
<path d="M48.2704 42.6914C49.2815 42.2945 48.8806 40.8194 48.5538 40.1314C48.1487 39.4067 47.2154 37.682 46.7234 36.5805C46.1085 35.2036 46.1951 34.041 45.3541 32.9019C44.513 31.7628 43.1507 32.9576 41.0927 34.17C39.0347 35.3824 35.7362 38.0186 32.3364 41.2375C28.9367 44.4565 27.862 47.8487 27.0972 49.7247C26.4853 51.2254 27.7434 52.3385 28.449 52.7075C29.8909 53.1352 33.0775 54.0294 34.2882 54.1844C35.8016 54.3782 35.7899 53.9144 38.0183 50.2609C40.2467 46.6074 47.0065 43.1875 48.2704 42.6914Z" fill="#4CB449"/>
<circle cx="48.8626" cy="11.4177" r="5.33603" transform="rotate(89.2897 48.8626 11.4177)" fill="#259DD9"/>
<path d="M39.2138 9.7972C38.83 8.78107 37.3498 9.16292 36.6577 9.48086C35.9278 9.87661 34.1913 10.7875 33.0835 11.2653C31.6988 11.8625 30.5374 11.7609 29.3876 12.5872C28.2377 13.4136 29.4149 14.7911 30.6007 16.8646C31.7865 18.938 34.38 22.2702 37.5549 25.7111C40.7299 29.152 44.108 30.2702 45.9739 31.0591C47.4667 31.6903 48.5959 30.4466 48.9739 29.7458C49.4201 28.3095 50.3553 25.1347 50.5259 23.9261C50.7392 22.4154 50.2752 22.4211 46.6507 20.1459C43.0262 17.8706 39.6936 11.0674 39.2138 9.7972Z" fill="#259DD9"/>
<path d="M71.8541 35.7411H83.1111V40H66.5525V14.2696H71.8541V35.7411ZM96.8048 40.3534C94.0008 40.3534 91.7153 39.4934 89.9481 37.7733C88.1926 36.0533 87.3149 33.7618 87.3149 30.8989V30.4041C87.3149 28.4838 87.686 26.7696 88.4283 25.2616C89.1705 23.7418 90.219 22.5754 91.5739 21.7625C92.9405 20.9378 94.4956 20.5255 96.2393 20.5255C98.8547 20.5255 100.911 21.3502 102.407 22.9996C103.915 24.6489 104.669 26.9875 104.669 30.0153V32.1006H92.4928C92.6578 33.3494 93.1526 34.3509 93.9773 35.1049C94.8137 35.8589 95.8682 36.2359 97.1405 36.2359C99.108 36.2359 100.645 35.5231 101.753 34.0976L104.262 36.9074C103.497 37.9913 102.46 38.8395 101.152 39.4522C99.8444 40.053 98.3953 40.3534 96.8048 40.3534ZM96.2216 24.6607C95.2084 24.6607 94.3837 25.0024 93.7475 25.6857C93.1231 26.369 92.7226 27.3469 92.5458 28.6192H99.65V28.2128C99.6264 27.0818 99.3201 26.21 98.731 25.5973C98.142 24.9729 97.3055 24.6607 96.2216 24.6607ZM114.457 20.8789L114.616 23.0879C115.983 21.3796 117.815 20.5255 120.112 20.5255C122.138 20.5255 123.646 21.1204 124.636 22.3104C125.626 23.5003 126.132 25.2792 126.156 27.6473V40H121.049V27.771C121.049 26.6871 120.813 25.9037 120.342 25.4206C119.87 24.9258 119.087 24.6784 117.991 24.6784C116.554 24.6784 115.476 25.291 114.757 26.5163V40H109.65V20.8789H114.457ZM131.42 30.2981C131.42 27.3174 132.086 24.9435 133.417 23.1763C134.76 21.4091 136.592 20.5255 138.913 20.5255C140.774 20.5255 142.312 21.2206 143.525 22.6108V12.8559H148.65V40H144.038L143.79 37.9677C142.518 39.5582 140.88 40.3534 138.878 40.3534C136.627 40.3534 134.819 39.4698 133.452 37.7026C132.097 35.9237 131.42 33.4555 131.42 30.2981ZM136.527 30.6692C136.527 32.46 136.839 33.8325 137.464 34.7868C138.088 35.7411 138.995 36.2182 140.185 36.2182C141.764 36.2182 142.877 35.5526 143.525 34.2213V26.6753C142.889 25.344 141.787 24.6784 140.221 24.6784C137.758 24.6784 136.527 26.6753 136.527 30.6692ZM165.86 40C165.625 39.5405 165.454 38.9691 165.348 38.2858C164.111 39.6642 162.503 40.3534 160.524 40.3534C158.65 40.3534 157.095 39.8115 155.858 38.7276C154.633 37.6437 154.02 36.2771 154.02 34.6277C154.02 32.6013 154.768 31.0462 156.265 29.9623C157.773 28.8784 159.946 28.3306 162.786 28.3188H165.136V27.2232C165.136 26.3396 164.906 25.6327 164.447 25.1025C163.999 24.5724 163.286 24.3073 162.308 24.3073C161.448 24.3073 160.771 24.5135 160.276 24.9258C159.793 25.3382 159.552 25.9037 159.552 26.6223H154.444C154.444 25.5149 154.786 24.4899 155.469 23.5474C156.153 22.6049 157.119 21.8686 158.368 21.3384C159.616 20.7965 161.018 20.5255 162.573 20.5255C164.93 20.5255 166.797 21.1204 168.176 22.3104C169.566 23.4885 170.261 25.1497 170.261 27.2939V35.582C170.273 37.3963 170.526 38.7689 171.021 39.6996V40H165.86ZM161.637 36.4479C162.391 36.4479 163.086 36.283 163.722 35.9531C164.358 35.6115 164.83 35.1579 165.136 34.5924V31.3054H163.227C160.671 31.3054 159.31 32.189 159.145 33.9562L159.127 34.2566C159.127 34.8928 159.351 35.4171 159.799 35.8294C160.247 36.2418 160.859 36.4479 161.637 36.4479ZM193.586 30.6162C193.586 33.6793 192.932 36.0709 191.624 37.791C190.316 39.4993 188.49 40.3534 186.146 40.3534C184.072 40.3534 182.417 39.5582 181.18 37.9677L180.95 40H176.356V12.8559H181.463V22.5931C182.641 21.2147 184.19 20.5255 186.11 20.5255C188.443 20.5255 190.269 21.3855 191.589 23.1056C192.92 24.8139 193.586 27.2232 193.586 30.3334V30.6162ZM188.478 30.2451C188.478 28.3129 188.172 26.9051 187.56 26.0215C186.947 25.1261 186.034 24.6784 184.82 24.6784C183.195 24.6784 182.075 25.344 181.463 26.6753V34.2213C182.087 35.5643 183.218 36.2359 184.856 36.2359C186.505 36.2359 187.589 35.423 188.107 33.7971C188.355 33.0196 188.478 31.8355 188.478 30.2451ZM210.001 40C209.765 39.5405 209.594 38.9691 209.488 38.2858C208.251 39.6642 206.643 40.3534 204.664 40.3534C202.791 40.3534 201.236 39.8115 199.998 38.7276C198.773 37.6437 198.161 36.2771 198.161 34.6277C198.161 32.6013 198.909 31.0462 200.405 29.9623C201.913 28.8784 204.087 28.3306 206.926 28.3188H209.276V27.2232C209.276 26.3396 209.047 25.6327 208.587 25.1025C208.139 24.5724 207.427 24.3073 206.449 24.3073C205.589 24.3073 204.911 24.5135 204.416 24.9258C203.933 25.3382 203.692 25.9037 203.692 26.6223H198.585C198.585 25.5149 198.926 24.4899 199.61 23.5474C200.293 22.6049 201.259 21.8686 202.508 21.3384C203.757 20.7965 205.159 20.5255 206.714 20.5255C209.07 20.5255 210.937 21.1204 212.316 22.3104C213.706 23.4885 214.401 25.1497 214.401 27.2939V35.582C214.413 37.3963 214.666 38.7689 215.161 39.6996V40H210.001ZM205.777 36.4479C206.531 36.4479 207.226 36.283 207.863 35.9531C208.499 35.6115 208.97 35.1579 209.276 34.5924V31.3054H207.368C204.811 31.3054 203.45 32.189 203.285 33.9562L203.268 34.2566C203.268 34.8928 203.492 35.4171 203.939 35.8294C204.387 36.2418 205 36.4479 205.777 36.4479Z" fill="#259DD9"/>
<path d="M67.3477 43.7904L69.2889 48.6352L71.2301 43.7904H72.2456V49.7281H71.4626V47.4158L71.536 44.92L69.5866 49.7281H68.9872L67.0419 44.9322L67.1194 47.4158V49.7281H66.3364V43.7904H67.3477ZM74.0617 47.4811C74.0617 47.0488 74.146 46.66 74.3145 46.3147C74.4858 45.9695 74.7223 45.703 75.0241 45.5154C75.3286 45.3278 75.6753 45.234 76.064 45.234C76.6649 45.234 77.1502 45.442 77.5199 45.858C77.8924 46.274 78.0787 46.8272 78.0787 47.5178V47.5708C78.0787 48.0004 77.9957 48.3864 77.8299 48.729C77.6668 49.0688 77.4316 49.3339 77.1244 49.5242C76.8199 49.7146 76.4691 49.8097 76.0722 49.8097C75.4741 49.8097 74.9888 49.6017 74.6163 49.1858C74.2466 48.7698 74.0617 48.2192 74.0617 47.5341V47.4811ZM74.8202 47.5708C74.8202 48.0602 74.933 48.453 75.1587 48.7494C75.3871 49.0457 75.6916 49.1939 76.0722 49.1939C76.4556 49.1939 76.7601 49.0444 76.9857 48.7453C77.2114 48.4435 77.3242 48.0221 77.3242 47.4811C77.3242 46.9971 77.2086 46.6056 76.9776 46.3066C76.7492 46.0048 76.4447 45.8539 76.064 45.8539C75.6916 45.8539 75.3912 46.0021 75.1628 46.2984C74.9344 46.5948 74.8202 47.0189 74.8202 47.5708ZM80.4901 45.3156L80.5146 45.8702C80.8517 45.4461 81.2922 45.234 81.8359 45.234C82.7685 45.234 83.2388 45.7601 83.247 46.8123V49.7281H82.4925V46.8082C82.4898 46.4901 82.4164 46.2549 82.2723 46.1027C82.1309 45.9504 81.9093 45.8743 81.6076 45.8743C81.3629 45.8743 81.1481 45.9396 80.9632 46.0701C80.7783 46.2006 80.6342 46.3718 80.5309 46.5839V49.7281H79.7765V45.3156H80.4901ZM86.9675 49.8097C86.3694 49.8097 85.8828 49.614 85.5076 49.2225C85.1324 48.8282 84.9448 48.3022 84.9448 47.6442V47.5056C84.9448 47.0678 85.0277 46.6777 85.1936 46.3351C85.3621 45.9898 85.5959 45.7207 85.895 45.5277C86.1968 45.3319 86.523 45.234 86.8737 45.234C87.4474 45.234 87.8933 45.423 88.2114 45.8009C88.5295 46.1788 88.6885 46.7198 88.6885 47.424V47.738H85.6992C85.7101 48.173 85.8365 48.5251 86.0785 48.7943C86.3232 49.0607 86.6331 49.1939 87.0083 49.1939C87.2748 49.1939 87.5004 49.1395 87.6853 49.0308C87.8702 48.922 88.0319 48.7779 88.1706 48.5985L88.6314 48.9574C88.2617 49.5256 87.7071 49.8097 86.9675 49.8097ZM86.8737 45.8539C86.5692 45.8539 86.3137 45.9654 86.1071 46.1883C85.9004 46.4085 85.7726 46.7185 85.7237 47.1181H87.9341V47.061C87.9123 46.6777 87.809 46.3813 87.6241 46.172C87.4393 45.9599 87.1891 45.8539 86.8737 45.8539ZM91.7036 48.623L92.7313 45.3156H93.5387L91.7648 50.4092C91.4902 51.1433 91.0538 51.5103 90.4557 51.5103L90.3129 51.4981L90.0315 51.445V50.8333L90.2354 50.8496C90.491 50.8496 90.6895 50.798 90.8309 50.6947C90.975 50.5914 91.0932 50.4024 91.1857 50.1278L91.3529 49.6792L89.7787 45.3156H90.6025L91.7036 48.623ZM101.698 48.6882L102.546 45.3156H103.3L102.016 49.7281H101.404L100.331 46.3841L99.2875 49.7281H98.6757L97.3952 45.3156H98.1456L99.0142 48.6189L100.042 45.3156H100.65L101.698 48.6882ZM105.577 45.8498C105.912 45.4393 106.347 45.234 106.882 45.234C107.815 45.234 108.285 45.7601 108.293 46.8123V49.7281H107.539V46.8082C107.536 46.4901 107.463 46.2549 107.319 46.1027C107.177 45.9504 106.956 45.8743 106.654 45.8743C106.409 45.8743 106.194 45.9396 106.01 46.0701C105.825 46.2006 105.681 46.3718 105.577 46.5839V49.7281H104.823V43.4641H105.577V45.8498ZM112.006 49.8097C111.408 49.8097 110.921 49.614 110.546 49.2225C110.171 48.8282 109.983 48.3022 109.983 47.6442V47.5056C109.983 47.0678 110.066 46.6777 110.232 46.3351C110.4 45.9898 110.634 45.7207 110.933 45.5277C111.235 45.3319 111.561 45.234 111.912 45.234C112.486 45.234 112.931 45.423 113.25 45.8009C113.568 46.1788 113.727 46.7198 113.727 47.424V47.738H110.737C110.748 48.173 110.875 48.5251 111.117 48.7943C111.361 49.0607 111.671 49.1939 112.047 49.1939C112.313 49.1939 112.539 49.1395 112.723 49.0308C112.908 48.922 113.07 48.7779 113.209 48.5985L113.67 48.9574C113.3 49.5256 112.745 49.8097 112.006 49.8097ZM111.912 45.8539C111.607 45.8539 111.352 45.9654 111.145 46.1883C110.939 46.4085 110.811 46.7185 110.762 47.1181H112.972V47.061C112.951 46.6777 112.847 46.3813 112.662 46.172C112.477 45.9599 112.227 45.8539 111.912 45.8539ZM116.069 45.3156L116.093 45.8702C116.43 45.4461 116.871 45.234 117.415 45.234C118.347 45.234 118.818 45.7601 118.826 46.8123V49.7281H118.071V46.8082C118.069 46.4901 117.995 46.2549 117.851 46.1027C117.71 45.9504 117.488 45.8743 117.186 45.8743C116.942 45.8743 116.727 45.9396 116.542 46.0701C116.357 46.2006 116.213 46.3718 116.11 46.5839V49.7281H115.355V45.3156H116.069ZM124.982 48.623L126.01 45.3156H126.817L125.043 50.4092C124.769 51.1433 124.332 51.5103 123.734 51.5103L123.592 51.4981L123.31 51.445V50.8333L123.514 50.8496C123.77 50.8496 123.968 50.798 124.11 50.6947C124.254 50.5914 124.372 50.4024 124.464 50.1278L124.632 49.6792L123.057 45.3156H123.881L124.982 48.623ZM127.981 47.4811C127.981 47.0488 128.065 46.66 128.234 46.3147C128.405 45.9695 128.642 45.703 128.943 45.5154C129.248 45.3278 129.595 45.234 129.983 45.234C130.584 45.234 131.07 45.442 131.439 45.858C131.812 46.274 131.998 46.8272 131.998 47.5178V47.5708C131.998 48.0004 131.915 48.3864 131.749 48.729C131.586 49.0688 131.351 49.3339 131.044 49.5242C130.739 49.7146 130.388 49.8097 129.992 49.8097C129.393 49.8097 128.908 49.6017 128.536 49.1858C128.166 48.7698 127.981 48.2192 127.981 47.5341V47.4811ZM128.74 47.5708C128.74 48.0602 128.852 48.453 129.078 48.7494C129.306 49.0457 129.611 49.1939 129.992 49.1939C130.375 49.1939 130.679 49.0444 130.905 48.7453C131.131 48.4435 131.244 48.0221 131.244 47.4811C131.244 46.9971 131.128 46.6056 130.897 46.3066C130.668 46.0048 130.364 45.8539 129.983 45.8539C129.611 45.8539 129.31 46.0021 129.082 46.2984C128.854 46.5948 128.74 47.0189 128.74 47.5708ZM136.42 49.2918C136.126 49.6371 135.695 49.8097 135.127 49.8097C134.657 49.8097 134.298 49.6738 134.051 49.4019C133.806 49.1273 133.682 48.7222 133.679 48.1866V45.3156H134.434V48.1662C134.434 48.835 134.706 49.1694 135.25 49.1694C135.826 49.1694 136.209 48.9547 136.4 48.5251V45.3156H137.154V49.7281H136.436L136.42 49.2918ZM142.593 45.3156L142.617 45.8702C142.954 45.4461 143.395 45.234 143.939 45.234C144.871 45.234 145.342 45.7601 145.35 46.8123V49.7281H144.595V46.8082C144.592 46.4901 144.519 46.2549 144.375 46.1027C144.234 45.9504 144.012 45.8743 143.71 45.8743C143.466 45.8743 143.251 45.9396 143.066 46.0701C142.881 46.2006 142.737 46.3718 142.634 46.5839V49.7281H141.879V45.3156H142.593ZM149.07 49.8097C148.472 49.8097 147.985 49.614 147.61 49.2225C147.235 48.8282 147.047 48.3022 147.047 47.6442V47.5056C147.047 47.0678 147.13 46.6777 147.296 46.3351C147.465 45.9898 147.699 45.7207 147.998 45.5277C148.299 45.3319 148.626 45.234 148.976 45.234C149.55 45.234 149.996 45.423 150.314 45.8009C150.632 46.1788 150.791 46.7198 150.791 47.424V47.738H147.802C147.813 48.173 147.939 48.5251 148.181 48.7943C148.426 49.0607 148.736 49.1939 149.111 49.1939C149.377 49.1939 149.603 49.1395 149.788 49.0308C149.973 48.922 150.135 48.7779 150.273 48.5985L150.734 48.9574C150.364 49.5256 149.81 49.8097 149.07 49.8097ZM148.976 45.8539C148.672 45.8539 148.416 45.9654 148.21 46.1883C148.003 46.4085 147.875 46.7185 147.826 47.1181H150.037V47.061C150.015 46.6777 149.912 46.3813 149.727 46.172C149.542 45.9599 149.292 45.8539 148.976 45.8539ZM154.251 49.8097C153.653 49.8097 153.166 49.614 152.791 49.2225C152.416 48.8282 152.228 48.3022 152.228 47.6442V47.5056C152.228 47.0678 152.311 46.6777 152.477 46.3351C152.645 45.9898 152.879 45.7207 153.178 45.5277C153.48 45.3319 153.806 45.234 154.157 45.234C154.731 45.234 155.177 45.423 155.495 45.8009C155.813 46.1788 155.972 46.7198 155.972 47.424V47.738H152.982C152.993 48.173 153.12 48.5251 153.362 48.7943C153.606 49.0607 153.916 49.1939 154.292 49.1939C154.558 49.1939 154.784 49.1395 154.969 49.0308C155.153 48.922 155.315 48.7779 155.454 48.5985L155.915 48.9574C155.545 49.5256 154.99 49.8097 154.251 49.8097ZM154.157 45.8539C153.852 45.8539 153.597 45.9654 153.39 46.1883C153.184 46.4085 153.056 46.7185 153.007 47.1181H155.217V47.061C155.196 46.6777 155.092 46.3813 154.907 46.172C154.722 45.9599 154.472 45.8539 154.157 45.8539ZM157.417 47.4852C157.417 46.8082 157.577 46.2644 157.898 45.8539C158.219 45.4407 158.639 45.234 159.158 45.234C159.675 45.234 160.084 45.4108 160.386 45.7642V43.4641H161.14V49.7281H160.447L160.41 49.2551C160.108 49.6248 159.688 49.8097 159.15 49.8097C158.639 49.8097 158.221 49.6004 157.898 49.1817C157.577 48.763 157.417 48.2165 157.417 47.5423V47.4852ZM158.171 47.5708C158.171 48.0711 158.274 48.4626 158.481 48.7453C158.688 49.0281 158.973 49.1694 159.338 49.1694C159.816 49.1694 160.165 48.9547 160.386 48.5251V46.4983C160.16 46.0823 159.813 45.8743 159.346 45.8743C158.976 45.8743 158.688 46.017 158.481 46.3025C158.274 46.588 158.171 47.0107 158.171 47.5708ZM166.709 49.7281H165.955V45.3156H166.709V49.7281ZM165.894 44.1452C165.894 44.0228 165.93 43.9195 166.004 43.8352C166.08 43.7509 166.191 43.7088 166.338 43.7088C166.485 43.7088 166.597 43.7509 166.673 43.8352C166.749 43.9195 166.787 44.0228 166.787 44.1452C166.787 44.2675 166.749 44.3695 166.673 44.451C166.597 44.5326 166.485 44.5734 166.338 44.5734C166.191 44.5734 166.08 44.5326 166.004 44.451C165.93 44.3695 165.894 44.2675 165.894 44.1452ZM169.696 44.2471V45.3156H170.52V45.8988H169.696V48.6352C169.696 48.8119 169.733 48.9451 169.806 49.0349C169.879 49.1219 170.004 49.1654 170.181 49.1654C170.268 49.1654 170.388 49.1491 170.54 49.1164V49.7281C170.342 49.7825 170.149 49.8097 169.961 49.8097C169.624 49.8097 169.37 49.7078 169.198 49.5039C169.027 49.2999 168.941 49.0104 168.941 48.6352V45.8988H168.138V45.3156H168.941V44.2471H169.696Z" fill="white"/>
<rect x="225" y="6.13736" width="1.14424" height="51.491" fill="white"/>
<path d="M238.14 57.2502V48.3003H241.871C242.266 48.3003 242.627 48.3844 242.955 48.5525C243.291 48.7121 243.577 48.9306 243.812 49.2079C244.056 49.4769 244.245 49.7836 244.379 50.1281C244.514 50.4643 244.581 50.8088 244.581 51.1618C244.581 51.5315 244.518 51.8887 244.392 52.2332C244.266 52.5778 244.085 52.8845 243.85 53.1534C243.623 53.4223 243.346 53.6366 243.018 53.7963C242.699 53.956 242.341 54.0358 241.946 54.0358H239.274V57.2502H238.14ZM239.274 53.0274H241.883C242.119 53.0274 242.329 52.9812 242.514 52.8887C242.707 52.7879 242.871 52.6534 243.005 52.4853C243.14 52.3089 243.245 52.1072 243.32 51.8803C243.396 51.6534 243.434 51.4139 243.434 51.1618C243.434 50.9013 243.388 50.6576 243.295 50.4307C243.211 50.2038 243.094 50.0063 242.942 49.8382C242.799 49.6701 242.627 49.5399 242.426 49.4474C242.232 49.355 242.026 49.3088 241.808 49.3088H239.274V53.0274ZM245.993 57.2502V48.3003H247.128V56.2418H252.12V57.2502H245.993ZM256.078 48.3003H257.036L260.691 57.2502H259.481L258.422 54.6283H254.666L253.619 57.2502H252.409L256.078 48.3003ZM258.17 53.7459L256.557 49.6113L254.893 53.7459H258.17ZM267.49 49.3088H264.402V57.2502H263.267V49.3088H260.179V48.3003H267.49V49.3088ZM268.779 57.2502V48.3003H274.691V49.3088H269.914V52.2963H273.935V53.2417H269.914V57.2502H268.779ZM279.599 57.3132C278.968 57.3132 278.393 57.1872 277.872 56.935C277.359 56.6745 276.918 56.3342 276.548 55.914C276.178 55.4854 275.893 54.998 275.691 54.4518C275.489 53.9055 275.388 53.3467 275.388 52.7753C275.388 52.1786 275.493 51.6072 275.703 51.0609C275.922 50.5147 276.22 50.0315 276.598 49.6113C276.977 49.1911 277.422 48.8592 277.935 48.6155C278.456 48.3634 279.019 48.2373 279.624 48.2373C280.254 48.2373 280.825 48.3718 281.338 48.6407C281.851 48.9012 282.292 49.2458 282.662 49.6743C283.031 50.1029 283.317 50.5903 283.519 51.1366C283.721 51.6744 283.821 52.2248 283.821 52.7879C283.821 53.3845 283.712 53.956 283.494 54.5022C283.284 55.0484 282.989 55.5316 282.611 55.9518C282.241 56.3636 281.796 56.6955 281.275 56.9477C280.762 57.1914 280.204 57.3132 279.599 57.3132ZM276.535 52.7753C276.535 53.2291 276.607 53.6702 276.75 54.0988C276.901 54.519 277.111 54.893 277.38 55.2207C277.649 55.5485 277.972 55.809 278.351 56.0022C278.729 56.1955 279.149 56.2922 279.611 56.2922C280.09 56.2922 280.519 56.1913 280.897 55.9896C281.275 55.7796 281.594 55.5106 281.855 55.1829C282.124 54.8468 282.326 54.4686 282.46 54.0484C282.603 53.6282 282.674 53.2038 282.674 52.7753C282.674 52.3215 282.599 51.8845 282.447 51.4643C282.304 51.0357 282.094 50.6618 281.817 50.3424C281.548 50.0147 281.225 49.7542 280.846 49.5609C280.477 49.3676 280.065 49.271 279.611 49.271C279.132 49.271 278.704 49.3718 278.325 49.5735C277.947 49.7752 277.624 50.0399 277.355 50.3676C277.094 50.6954 276.893 51.0693 276.75 51.4895C276.607 51.9097 276.535 52.3383 276.535 52.7753ZM285.398 57.2502V48.3003H289.23C289.625 48.3003 289.986 48.3844 290.314 48.5525C290.65 48.7121 290.936 48.9306 291.171 49.2079C291.415 49.4769 291.604 49.7836 291.738 50.1281C291.873 50.4643 291.94 50.8088 291.94 51.1618C291.94 51.4727 291.894 51.7752 291.801 52.0694C291.717 52.3551 291.591 52.6156 291.423 52.8509C291.263 53.0862 291.066 53.2879 290.831 53.456C290.604 53.624 290.347 53.7459 290.062 53.8215L292.23 57.2502H290.944L288.902 54.0358H286.532V57.2502H285.398ZM286.532 53.0274H289.242C289.478 53.0274 289.688 52.977 289.873 52.8761C290.066 52.7753 290.23 52.6408 290.364 52.4727C290.499 52.2963 290.604 52.0946 290.679 51.8677C290.755 51.6408 290.793 51.4055 290.793 51.1618C290.793 50.9097 290.747 50.6744 290.654 50.4559C290.57 50.229 290.452 50.0315 290.301 49.8634C290.158 49.6869 289.986 49.5525 289.784 49.46C289.591 49.3592 289.385 49.3088 289.167 49.3088H286.532V53.0274ZM301.422 57.2502V50.3298L298.447 55.6367H297.804L294.817 50.3298V57.2502H293.682V48.3003H294.88L298.119 54.1114L301.372 48.3003H302.556V57.2502H301.422Z" fill="white"/>
<path d="M238.274 43.5757V33.5067H242.471C242.916 33.5067 243.322 33.6012 243.691 33.7903C244.069 33.9699 244.391 34.2158 244.655 34.5278C244.93 34.8303 245.142 35.1754 245.294 35.563C245.445 35.9412 245.52 36.3288 245.52 36.7259C245.52 37.1419 245.45 37.5437 245.308 37.9314C245.166 38.319 244.963 38.6641 244.698 38.9666C244.443 39.2692 244.131 39.5103 243.762 39.6899C243.403 39.8695 243.001 39.9594 242.557 39.9594H239.55V43.5757H238.274ZM239.55 38.8248H242.486C242.75 38.8248 242.987 38.7728 243.195 38.6688C243.412 38.5554 243.597 38.4041 243.748 38.215C243.899 38.0165 244.017 37.7896 244.102 37.5343C244.187 37.279 244.23 37.0096 244.23 36.7259C244.23 36.4328 244.178 36.1587 244.074 35.9034C243.979 35.6481 243.847 35.4259 243.677 35.2368C243.516 35.0478 243.322 34.9012 243.095 34.7972C242.878 34.6932 242.646 34.6412 242.401 34.6412H239.55V38.8248ZM249.453 33.5067H250.53L254.643 43.5757H253.282L252.09 40.6259H247.864L246.687 43.5757H245.326L249.453 33.5067ZM251.807 39.6332L249.992 34.9816L248.12 39.6332H251.807ZM255.262 33.5067L258.311 38.7539L261.388 33.5067H262.778L258.949 39.9026V43.5757H257.673V39.8743L253.858 33.5067H255.262ZM272.879 43.5757V35.7899L269.533 41.7604H268.809L265.448 35.7899V43.5757H264.172V33.5067H265.519L269.164 40.0444L272.823 33.5067H274.156V43.5757H272.879ZM283.403 42.4411V43.5757H276.567V33.5067H283.275V34.6412H277.843V37.903H282.566V38.9666H277.843V42.4411H283.403ZM286.43 35.8892V43.5757H285.154V33.5067H286.146L292.386 41.3492V33.5209H293.663V43.5757H292.585L286.43 35.8892ZM303.328 34.6412H299.853V43.5757H298.577V34.6412H295.102V33.5067H303.328V34.6412Z" fill="white"/>
<path d="M257.171 24.1607C257.171 25.0329 256.99 25.8306 256.629 26.5538C256.288 27.2771 255.81 27.894 255.193 28.4046C254.597 28.9151 253.895 29.3086 253.087 29.5852C252.3 29.8617 251.449 30 250.534 30H239.781V7.34473H251.045C251.832 7.34473 252.544 7.51492 253.182 7.85528C253.821 8.19564 254.363 8.64236 254.81 9.19545C255.257 9.72726 255.597 10.3442 255.831 11.0462C256.086 11.7269 256.214 12.4182 256.214 13.1202C256.214 14.2477 255.927 15.29 255.352 16.2473C254.799 17.2046 254.001 17.9172 252.959 18.3852C254.257 18.7681 255.278 19.4807 256.022 20.5231C256.788 21.5442 257.171 22.7567 257.171 24.1607ZM254.267 23.6501C254.267 23.1396 254.172 22.6503 253.98 22.1823C253.81 21.6931 253.565 21.2676 253.246 20.906C252.948 20.5444 252.587 20.2572 252.161 20.0444C251.736 19.8317 251.268 19.7254 250.757 19.7254H242.653V27.5111H250.534C251.066 27.5111 251.555 27.4047 252.002 27.192C252.449 26.9793 252.842 26.7028 253.182 26.3624C253.523 26.0008 253.789 25.5859 253.98 25.1179C254.172 24.65 254.267 24.1607 254.267 23.6501ZM242.653 9.83362V17.396H249.864C250.374 17.396 250.842 17.3003 251.268 17.1088C251.693 16.8961 252.055 16.6196 252.353 16.2792C252.672 15.9388 252.917 15.5453 253.087 15.0986C253.278 14.6306 253.374 14.1413 253.374 13.6308C253.374 13.099 253.289 12.5991 253.119 12.1311C252.948 11.6631 252.714 11.2589 252.417 10.9185C252.14 10.5782 251.789 10.3123 251.364 10.1208C250.959 9.92935 250.523 9.83362 250.055 9.83362H242.653ZM261.188 30V7.34473H264.06V30H261.188ZM269.477 30V7.34473H272.349V27.4473H284.985V30H269.477ZM288.111 30V7.34473H290.983V27.4473H303.619V30H288.111Z" fill="white"/>
</svg>
