<svg width="278" height="53" viewBox="0 0 278 53" fill="none" xmlns="http://www.w3.org/2000/svg">
<circle cx="7.28067" cy="10.8007" r="4.78995" fill="#4CB449"/>
<path d="M5.71871 19.4435C4.80237 19.7767 5.12865 21.1095 5.40632 21.7343C5.75342 22.3938 6.55175 23.9627 6.96826 24.9623C7.48891 26.2119 7.38478 27.2532 8.11369 28.2945C8.84259 29.3357 10.0921 28.2945 11.9665 27.2532C13.8408 26.2119 16.8605 23.921 19.9844 21.1095C23.1083 18.298 24.1496 15.2783 24.8785 13.6122C25.4616 12.2794 24.3578 11.252 23.7331 10.9049C22.4488 10.4884 19.6096 9.61366 18.5266 9.44706C17.1729 9.2388 17.1729 9.65532 15.0903 12.8833C13.0078 16.1113 6.86413 19.0269 5.71871 19.4435Z" fill="#49B747"/>
<circle cx="4.87276" cy="47.8164" r="4.78995" transform="rotate(-90.2674 4.87276 47.8164)" fill="#259DD9"/>
<path d="M13.5227 49.338C13.8601 50.2528 15.1915 49.9203 15.8149 49.6397C16.4728 49.2895 18.0379 48.4839 19.0356 48.0627C20.2827 47.5362 21.3245 47.6355 22.3624 46.9018C23.4003 46.168 22.3531 44.9233 21.3031 43.0539C20.2531 41.1844 17.9482 38.1754 15.1221 35.0647C12.2961 31.954 9.27152 30.9268 7.60207 30.2056C6.26651 29.6288 5.24426 30.7373 4.90008 31.3637C4.48956 32.6499 3.62814 35.4932 3.46659 36.5769C3.26465 37.9315 3.68116 37.9296 6.91885 39.9971C10.1565 42.0646 13.1008 48.1945 13.5227 49.338Z" fill="#259DD9"/>
<circle cx="41.9872" cy="47.0018" r="4.78995" transform="rotate(178.552 41.9872 47.0018)" fill="#4CB449"/>
<path d="M43.3303 38.3224C44.2379 37.9661 43.878 36.642 43.5847 36.0244C43.221 35.3739 42.3833 33.8257 41.9417 32.8369C41.3896 31.6009 41.4674 30.5573 40.7124 29.5348C39.9574 28.5122 38.7346 29.5847 36.8872 30.6731C35.0398 31.7614 32.0789 34.1278 29.027 37.0173C25.9752 39.9068 25.0105 42.9519 24.3239 44.6359C23.7747 45.983 24.904 46.9822 25.5374 47.3134C26.8318 47.6974 29.6922 48.5 30.779 48.6392C32.1375 48.8132 32.127 48.3968 34.1274 45.1172C36.1277 41.8376 42.1957 38.7677 43.3303 38.3224Z" fill="#4CB449"/>
<circle cx="43.862" cy="10.2492" r="4.78995" transform="rotate(89.2897 43.862 10.2492)" fill="#259DD9"/>
<path d="M35.2007 8.79457C34.8561 7.88243 33.5274 8.2252 32.9061 8.5106C32.251 8.86585 30.6922 9.68357 29.6978 10.1124C28.4548 10.6485 27.4122 10.5573 26.3801 11.2991C25.3479 12.0408 26.4046 13.2774 27.4691 15.1387C28.5335 16.9999 30.8616 19.9911 33.7116 23.0798C36.5616 26.1686 39.594 27.1724 41.269 27.8806C42.609 28.4471 43.6226 27.3307 43.962 26.7017C44.3625 25.4124 45.2019 22.5625 45.3551 21.4776C45.5466 20.1214 45.1301 20.1266 41.8765 18.0842C38.6229 16.0417 35.6314 9.93474 35.2007 8.79457Z" fill="#259DD9"/>
<path d="M64.5006 31.5629H74.6056V35.386H59.7416V12.2888H64.5006V31.5629ZM86.8979 35.7032C84.3809 35.7032 82.3292 34.9312 80.7429 33.3872C79.1671 31.8431 78.3792 29.7862 78.3792 27.2163V26.7721C78.3792 25.0483 78.7123 23.5095 79.3786 22.1558C80.0449 20.7916 80.9861 19.7446 82.2023 19.0149C83.4291 18.2746 84.8251 17.9044 86.3902 17.9044C88.738 17.9044 90.5835 18.6447 91.9266 20.1253C93.2803 21.6059 93.9571 23.7052 93.9571 26.4231V28.295H83.0272C83.1753 29.416 83.6194 30.3149 84.3597 30.9918C85.1106 31.6686 86.0571 32.007 87.1993 32.007C88.9654 32.007 90.3455 31.3672 91.3396 30.0876L93.5922 32.6099C92.9048 33.5828 91.9742 34.3443 90.8003 34.8942C89.6264 35.4335 88.3256 35.7032 86.8979 35.7032ZM86.3744 21.6165C85.4649 21.6165 84.7246 21.9232 84.1535 22.5366C83.593 23.15 83.2334 24.0277 83.0748 25.1699H89.4519V24.805C89.4307 23.7898 89.1558 23.0072 88.627 22.4573C88.0982 21.8967 87.3473 21.6165 86.3744 21.6165ZM102.744 18.2217L102.886 20.2046C104.113 18.6712 105.758 17.9044 107.82 17.9044C109.639 17.9044 110.993 18.4385 111.881 19.5067C112.769 20.5748 113.224 22.1717 113.245 24.2974V35.386H108.661V24.4085C108.661 23.4355 108.449 22.7322 108.026 22.2986C107.603 21.8544 106.9 21.6324 105.916 21.6324C104.626 21.6324 103.658 22.1823 103.013 23.2822V35.386H98.4287V18.2217H102.744ZM117.971 26.6769C117.971 24.0013 118.568 21.8703 119.763 20.284C120.969 18.6976 122.613 17.9044 124.697 17.9044C126.368 17.9044 127.748 18.5284 128.837 19.7763V11.0197H133.437V35.386H129.297L129.075 33.5617C127.933 34.9894 126.463 35.7032 124.665 35.7032C122.645 35.7032 121.022 34.9101 119.795 33.3237C118.579 31.7268 117.971 29.5112 117.971 26.6769ZM122.555 27.0101C122.555 28.6176 122.835 29.8496 123.396 30.7062C123.956 31.5629 124.771 31.9912 125.839 31.9912C127.256 31.9912 128.255 31.3937 128.837 30.1986V23.4249C128.266 22.2299 127.277 21.6324 125.871 21.6324C123.66 21.6324 122.555 23.4249 122.555 27.0101ZM148.886 35.386C148.675 34.9735 148.522 34.4606 148.426 33.8472C147.316 35.0846 145.872 35.7032 144.096 35.7032C142.414 35.7032 141.018 35.2167 139.908 34.2438C138.808 33.2708 138.258 32.0441 138.258 30.5635C138.258 28.7445 138.93 27.3485 140.273 26.3755C141.626 25.4026 143.578 24.9108 146.126 24.9002H148.236V23.9167C148.236 23.1235 148.03 22.489 147.617 22.0131C147.216 21.5372 146.576 21.2992 145.698 21.2992C144.926 21.2992 144.318 21.4843 143.874 21.8544C143.44 22.2246 143.223 22.7322 143.223 23.3773H138.639C138.639 22.3832 138.945 21.4631 139.559 20.6171C140.172 19.771 141.039 19.1101 142.16 18.6342C143.281 18.1477 144.54 17.9044 145.936 17.9044C148.051 17.9044 149.727 18.4385 150.965 19.5067C152.213 20.5642 152.836 22.0554 152.836 23.9801V31.4201C152.847 33.0487 153.074 34.2808 153.519 35.1163V35.386H148.886ZM145.095 32.1974C145.772 32.1974 146.396 32.0493 146.967 31.7532C147.538 31.4465 147.961 31.0394 148.236 30.5317V27.5811H146.523C144.228 27.5811 143.006 28.3743 142.858 29.9607L142.843 30.2303C142.843 30.8014 143.043 31.272 143.445 31.6422C143.847 32.0123 144.397 32.1974 145.095 32.1974ZM173.774 26.9625C173.774 29.7121 173.187 31.859 172.013 33.403C170.84 34.9365 169.2 35.7032 167.096 35.7032C165.235 35.7032 163.749 34.9894 162.638 33.5617L162.432 35.386H158.307V11.0197H162.892V19.7605C163.95 18.5231 165.34 17.9044 167.064 17.9044C169.158 17.9044 170.797 18.6765 171.982 20.2205C173.177 21.754 173.774 23.9167 173.774 26.7087V26.9625ZM169.19 26.6293C169.19 24.8949 168.915 23.6311 168.365 22.838C167.815 22.0342 166.995 21.6324 165.906 21.6324C164.447 21.6324 163.442 22.2299 162.892 23.4249V30.1986C163.453 31.4042 164.468 32.007 165.938 32.007C167.418 32.007 168.391 31.2773 168.857 29.8179C169.079 29.1199 169.19 28.057 169.19 26.6293ZM188.51 35.386C188.298 34.9735 188.145 34.4606 188.05 33.8472C186.939 35.0846 185.496 35.7032 183.719 35.7032C182.037 35.7032 180.641 35.2167 179.531 34.2438C178.431 33.2708 177.881 32.0441 177.881 30.5635C177.881 28.7445 178.553 27.3485 179.896 26.3755C181.249 25.4026 183.201 24.9108 185.749 24.9002H187.859V23.9167C187.859 23.1235 187.653 22.489 187.24 22.0131C186.839 21.5372 186.199 21.2992 185.321 21.2992C184.549 21.2992 183.941 21.4843 183.497 21.8544C183.063 22.2246 182.846 22.7322 182.846 23.3773H178.262C178.262 22.3832 178.568 21.4631 179.182 20.6171C179.795 19.771 180.662 19.1101 181.783 18.6342C182.904 18.1477 184.163 17.9044 185.559 17.9044C187.674 17.9044 189.35 18.4385 190.588 19.5067C191.836 20.5642 192.46 22.0554 192.46 23.9801V31.4201C192.47 33.0487 192.698 34.2808 193.142 35.1163V35.386H188.51ZM184.718 32.1974C185.395 32.1974 186.019 32.0493 186.59 31.7532C187.161 31.4465 187.584 31.0394 187.859 30.5317V27.5811H186.146C183.851 27.5811 182.63 28.3743 182.481 29.9607L182.466 30.2303C182.466 30.8014 182.667 31.272 183.068 31.6422C183.47 32.0123 184.02 32.1974 184.718 32.1974Z" fill="#259DD9"/>
<path d="M60.4554 39.1276L62.1979 43.4766L63.9405 39.1276H64.852V44.4577H64.1491V42.3821L64.215 40.1417L62.4652 44.4577H61.927L60.1808 40.1526L60.2504 42.3821V44.4577H59.5475V39.1276H60.4554ZM66.4822 42.4406C66.4822 42.0526 66.5579 41.7036 66.7092 41.3936C66.8629 41.0837 67.0753 40.8445 67.3462 40.6761C67.6195 40.5077 67.9307 40.4235 68.2797 40.4235C68.819 40.4235 69.2547 40.6102 69.5866 40.9836C69.9209 41.357 70.0881 41.8537 70.0881 42.4736V42.5212C70.0881 42.9068 70.0137 43.2533 69.8648 43.5608C69.7184 43.8659 69.5073 44.1039 69.2315 44.2747C68.9581 44.4455 68.6433 44.5309 68.287 44.5309C67.7501 44.5309 67.3144 44.3442 66.9801 43.9708C66.6482 43.5974 66.4822 43.1032 66.4822 42.4882V42.4406ZM67.1631 42.5212C67.1631 42.9605 67.2644 43.3131 67.467 43.5791C67.672 43.8452 67.9453 43.9782 68.287 43.9782C68.6311 43.9782 68.9044 43.8439 69.107 43.5755C69.3096 43.3046 69.4109 42.9263 69.4109 42.4406C69.4109 42.0062 69.3071 41.6548 69.0997 41.3863C68.8947 41.1154 68.6213 40.98 68.2797 40.98C67.9453 40.98 67.6756 41.113 67.4706 41.379C67.2656 41.645 67.1631 42.0257 67.1631 42.5212ZM72.2528 40.4968L72.2748 40.9946C72.5774 40.6139 72.9728 40.4235 73.4609 40.4235C74.298 40.4235 74.7202 40.8958 74.7275 41.8403V44.4577H74.0503V41.8366C74.0478 41.5511 73.9819 41.34 73.8526 41.2033C73.7257 41.0666 73.5268 40.9983 73.2559 40.9983C73.0362 40.9983 72.8434 41.0569 72.6775 41.174C72.5115 41.2911 72.3822 41.4449 72.2894 41.6353V44.4577H71.6122V40.4968H72.2528ZM78.0673 44.5309C77.5304 44.5309 77.0935 44.3552 76.7568 44.0038C76.42 43.6499 76.2516 43.1777 76.2516 42.5871V42.4626C76.2516 42.0697 76.326 41.7195 76.4749 41.412C76.6262 41.102 76.8361 40.8604 77.1045 40.6871C77.3754 40.5114 77.6683 40.4235 77.9831 40.4235C78.4981 40.4235 78.8983 40.5932 79.1839 40.9324C79.4694 41.2716 79.6122 41.7573 79.6122 42.3894V42.6713H76.9288C76.9386 43.0618 77.0521 43.3778 77.2693 43.6194C77.4889 43.8586 77.7671 43.9782 78.1039 43.9782C78.3431 43.9782 78.5457 43.9294 78.7116 43.8317C78.8776 43.7341 79.0228 43.6048 79.1473 43.4437L79.5609 43.7658C79.229 44.2759 78.7311 44.5309 78.0673 44.5309ZM77.9831 40.98C77.7098 40.98 77.4804 41.08 77.2949 41.2802C77.1094 41.4778 76.9947 41.7561 76.9508 42.1148H78.9349V42.0636C78.9154 41.7195 78.8227 41.4534 78.6567 41.2655C78.4907 41.0752 78.2662 40.98 77.9831 40.98ZM82.3187 43.4657L83.2412 40.4968H83.966L82.3736 45.0691C82.1271 45.728 81.7354 46.0575 81.1985 46.0575L81.0703 46.0465L80.8177 45.9989V45.4498L81.0008 45.4645C81.2302 45.4645 81.4084 45.4181 81.5353 45.3253C81.6646 45.2326 81.7708 45.063 81.8538 44.8165L82.0038 44.4138L80.5908 40.4968H81.3303L82.3187 43.4657ZM91.29 43.5242L92.0514 40.4968H92.7287L91.5755 44.4577H91.0264L90.0636 41.4559L89.1264 44.4577H88.5773L87.4278 40.4968H88.1014L88.8812 43.462L89.8037 40.4968H90.3491L91.29 43.5242ZM94.7725 40.9763C95.0727 40.6078 95.4632 40.4235 95.944 40.4235C96.7811 40.4235 97.2033 40.8958 97.2106 41.8403V44.4577H96.5334V41.8366C96.5309 41.5511 96.4651 41.34 96.3357 41.2033C96.2088 41.0666 96.0099 40.9983 95.739 40.9983C95.5193 40.9983 95.3265 41.0569 95.1606 41.174C94.9946 41.2911 94.8653 41.4449 94.7725 41.6353V44.4577H94.0953V38.8348H94.7725V40.9763ZM100.543 44.5309C100.006 44.5309 99.5694 44.3552 99.2326 44.0038C98.8958 43.6499 98.7274 43.1777 98.7274 42.5871V42.4626C98.7274 42.0697 98.8018 41.7195 98.9507 41.412C99.102 41.102 99.3119 40.8604 99.5803 40.6871C99.8512 40.5114 100.144 40.4235 100.459 40.4235C100.974 40.4235 101.374 40.5932 101.66 40.9324C101.945 41.2716 102.088 41.7573 102.088 42.3894V42.6713H99.4046C99.4144 43.0618 99.5279 43.3778 99.7451 43.6194C99.9647 43.8586 100.243 43.9782 100.58 43.9782C100.819 43.9782 101.021 43.9294 101.187 43.8317C101.353 43.7341 101.499 43.6048 101.623 43.4437L102.037 43.7658C101.705 44.2759 101.207 44.5309 100.543 44.5309ZM100.459 40.98C100.186 40.98 99.9562 41.08 99.7707 41.2802C99.5852 41.4778 99.4705 41.7561 99.4266 42.1148H101.411V42.0636C101.391 41.7195 101.298 41.4534 101.133 41.2655C100.967 41.0752 100.742 40.98 100.459 40.98ZM104.19 40.4968L104.212 40.9946C104.515 40.6139 104.91 40.4235 105.399 40.4235C106.236 40.4235 106.658 40.8958 106.665 41.8403V44.4577H105.988V41.8366C105.985 41.5511 105.92 41.34 105.79 41.2033C105.663 41.0666 105.464 40.9983 105.194 40.9983C104.974 40.9983 104.781 41.0569 104.615 41.174C104.449 41.2911 104.32 41.4449 104.227 41.6353V44.4577H103.55V40.4968H104.19ZM112.192 43.4657L113.114 40.4968H113.839L112.247 45.0691C112 45.728 111.608 46.0575 111.071 46.0575L110.943 46.0465L110.691 45.9989V45.4498L110.874 45.4645C111.103 45.4645 111.281 45.4181 111.408 45.3253C111.538 45.2326 111.644 45.063 111.727 44.8165L111.877 44.4138L110.464 40.4968H111.203L112.192 43.4657ZM114.883 42.4406C114.883 42.0526 114.959 41.7036 115.11 41.3936C115.264 41.0837 115.477 40.8445 115.747 40.6761C116.021 40.5077 116.332 40.4235 116.681 40.4235C117.22 40.4235 117.656 40.6102 117.988 40.9836C118.322 41.357 118.489 41.8537 118.489 42.4736V42.5212C118.489 42.9068 118.415 43.2533 118.266 43.5608C118.12 43.8659 117.909 44.1039 117.633 44.2747C117.359 44.4455 117.045 44.5309 116.688 44.5309C116.151 44.5309 115.716 44.3442 115.381 43.9708C115.049 43.5974 114.883 43.1032 114.883 42.4882V42.4406ZM115.564 42.5212C115.564 42.9605 115.666 43.3131 115.868 43.5791C116.073 43.8452 116.347 43.9782 116.688 43.9782C117.032 43.9782 117.306 43.8439 117.508 43.5755C117.711 43.3046 117.812 42.9263 117.812 42.4406C117.812 42.0062 117.708 41.6548 117.501 41.3863C117.296 41.1154 117.023 40.98 116.681 40.98C116.347 40.98 116.077 41.113 115.872 41.379C115.667 41.645 115.564 42.0257 115.564 42.5212ZM122.459 44.066C122.195 44.376 121.808 44.5309 121.298 44.5309C120.876 44.5309 120.554 44.4089 120.332 44.1649C120.112 43.9184 120.001 43.5547 119.999 43.074V40.4968H120.676V43.0556C120.676 43.656 120.92 43.9562 121.408 43.9562C121.926 43.9562 122.27 43.7634 122.441 43.3778V40.4968H123.118V44.4577H122.473L122.459 44.066ZM128 40.4968L128.022 40.9946C128.325 40.6139 128.72 40.4235 129.208 40.4235C130.045 40.4235 130.467 40.8958 130.475 41.8403V44.4577H129.797V41.8366C129.795 41.5511 129.729 41.34 129.6 41.2033C129.473 41.0666 129.274 40.9983 129.003 40.9983C128.783 40.9983 128.591 41.0569 128.425 41.174C128.259 41.2911 128.129 41.4449 128.037 41.6353V44.4577H127.359V40.4968H128ZM133.814 44.5309C133.278 44.5309 132.841 44.3552 132.504 44.0038C132.167 43.6499 131.999 43.1777 131.999 42.5871V42.4626C131.999 42.0697 132.073 41.7195 132.222 41.412C132.373 41.102 132.583 40.8604 132.852 40.6871C133.123 40.5114 133.415 40.4235 133.73 40.4235C134.245 40.4235 134.645 40.5932 134.931 40.9324C135.217 41.2716 135.359 41.7573 135.359 42.3894V42.6713H132.676C132.686 43.0618 132.799 43.3778 133.016 43.6194C133.236 43.8586 133.514 43.9782 133.851 43.9782C134.09 43.9782 134.293 43.9294 134.459 43.8317C134.625 43.7341 134.77 43.6048 134.894 43.4437L135.308 43.7658C134.976 44.2759 134.478 44.5309 133.814 44.5309ZM133.73 40.98C133.457 40.98 133.228 41.08 133.042 41.2802C132.857 41.4778 132.742 41.7561 132.698 42.1148H134.682V42.0636C134.663 41.7195 134.57 41.4534 134.404 41.2655C134.238 41.0752 134.013 40.98 133.73 40.98ZM138.465 44.5309C137.928 44.5309 137.491 44.3552 137.154 44.0038C136.817 43.6499 136.649 43.1777 136.649 42.5871V42.4626C136.649 42.0697 136.724 41.7195 136.872 41.412C137.024 41.102 137.234 40.8604 137.502 40.6871C137.773 40.5114 138.066 40.4235 138.381 40.4235C138.896 40.4235 139.296 40.5932 139.581 40.9324C139.867 41.2716 140.01 41.7573 140.01 42.3894V42.6713H137.326C137.336 43.0618 137.45 43.3778 137.667 43.6194C137.886 43.8586 138.165 43.9782 138.501 43.9782C138.741 43.9782 138.943 43.9294 139.109 43.8317C139.275 43.7341 139.42 43.6048 139.545 43.4437L139.958 43.7658C139.627 44.2759 139.129 44.5309 138.465 44.5309ZM138.381 40.98C138.107 40.98 137.878 41.08 137.692 41.2802C137.507 41.4778 137.392 41.7561 137.348 42.1148H139.332V42.0636C139.313 41.7195 139.22 41.4534 139.054 41.2655C138.888 41.0752 138.664 40.98 138.381 40.98ZM141.307 42.4443C141.307 41.8366 141.451 41.3485 141.739 40.98C142.027 40.609 142.404 40.4235 142.87 40.4235C143.334 40.4235 143.701 40.5822 143.972 40.8994V38.8348H144.649V44.4577H144.027L143.994 44.0331C143.723 44.365 143.346 44.5309 142.863 44.5309C142.404 44.5309 142.029 44.343 141.739 43.9672C141.451 43.5913 141.307 43.1008 141.307 42.4955V42.4443ZM141.984 42.5212C141.984 42.9702 142.077 43.3217 142.262 43.5755C142.448 43.8293 142.704 43.9562 143.031 43.9562C143.461 43.9562 143.774 43.7634 143.972 43.3778V41.5584C143.769 41.185 143.458 40.9983 143.038 40.9983C142.706 40.9983 142.448 41.1264 142.262 41.3827C142.077 41.6389 141.984 42.0184 141.984 42.5212ZM149.648 44.4577H148.971V40.4968H149.648V44.4577ZM148.916 39.4461C148.916 39.3363 148.949 39.2435 149.015 39.1679C149.083 39.0922 149.184 39.0544 149.315 39.0544C149.447 39.0544 149.547 39.0922 149.615 39.1679C149.684 39.2435 149.718 39.3363 149.718 39.4461C149.718 39.5559 149.684 39.6474 149.615 39.7207C149.547 39.7939 149.447 39.8305 149.315 39.8305C149.184 39.8305 149.083 39.7939 149.015 39.7207C148.949 39.6474 148.916 39.5559 148.916 39.4461ZM152.329 39.5376V40.4968H153.069V41.0202H152.329V43.4766C152.329 43.6353 152.362 43.7549 152.428 43.8354C152.494 43.9135 152.606 43.9525 152.765 43.9525C152.843 43.9525 152.95 43.9379 153.087 43.9086V44.4577C152.909 44.5065 152.736 44.5309 152.567 44.5309C152.265 44.5309 152.036 44.4394 151.883 44.2564C151.729 44.0733 151.652 43.8134 151.652 43.4766V41.0202H150.931V40.4968H151.652V39.5376H152.329Z" fill="white"/>
<rect x="201.974" y="5.50928" width="1.02714" height="46.2215" fill="#259DD9"/>
<path d="M213.769 51.6193V43.5854H217.118C217.473 43.5854 217.797 43.6608 218.091 43.8117C218.393 43.955 218.649 44.1512 218.861 44.4001C219.079 44.6415 219.249 44.9168 219.37 45.2261C219.491 45.5279 219.551 45.8372 219.551 46.154C219.551 46.4859 219.494 46.8065 219.381 47.1158C219.268 47.4251 219.106 47.7004 218.895 47.9418C218.691 48.1832 218.442 48.3756 218.148 48.5189C217.861 48.6622 217.54 48.7339 217.186 48.7339H214.787V51.6193H213.769ZM214.787 47.8287H217.129C217.341 47.8287 217.529 47.7872 217.695 47.7042C217.869 47.6137 218.016 47.493 218.136 47.3421C218.257 47.1837 218.351 47.0026 218.419 46.799C218.487 46.5953 218.521 46.3803 218.521 46.154C218.521 45.9201 218.48 45.7014 218.397 45.4977C218.321 45.294 218.216 45.1168 218.08 44.9659C217.952 44.815 217.797 44.6981 217.616 44.6151C217.442 44.5321 217.258 44.4906 217.061 44.4906H214.787V47.8287ZM220.819 51.6193V43.5854H221.837V50.7141H226.318V51.6193H220.819ZM229.871 43.5854H230.731L234.012 51.6193H232.926L231.975 49.2657H228.604L227.664 51.6193H226.578L229.871 43.5854ZM231.749 48.4736L230.301 44.7622L228.807 48.4736H231.749ZM240.115 44.4906H237.343V51.6193H236.325V44.4906H233.553V43.5854H240.115V44.4906ZM241.273 51.6193V43.5854H246.579V44.4906H242.291V47.1724H245.901V48.021H242.291V51.6193H241.273ZM250.985 51.6759C250.419 51.6759 249.902 51.5627 249.434 51.3364C248.974 51.1026 248.578 50.7971 248.246 50.4199C247.914 50.0352 247.658 49.5976 247.477 49.1073C247.296 48.617 247.205 48.1153 247.205 47.6024C247.205 47.0668 247.3 46.5538 247.488 46.0635C247.684 45.5731 247.952 45.1394 248.292 44.7622C248.631 44.385 249.031 44.0871 249.491 43.8683C249.959 43.642 250.464 43.5288 251.007 43.5288C251.573 43.5288 252.086 43.6495 252.546 43.8909C253.006 44.1248 253.402 44.4341 253.734 44.8188C254.066 45.2035 254.323 45.641 254.504 46.1314C254.685 46.6142 254.775 47.1083 254.775 47.6137C254.775 48.1493 254.677 48.6622 254.481 49.1526C254.293 49.6429 254.029 50.0767 253.689 50.4538C253.357 50.8235 252.957 51.1214 252.49 51.3478C252.029 51.5665 251.528 51.6759 250.985 51.6759ZM248.235 47.6024C248.235 48.0097 248.299 48.4058 248.427 48.7905C248.563 49.1677 248.752 49.5033 248.993 49.7975C249.235 50.0917 249.525 50.3256 249.864 50.4991C250.204 50.6726 250.581 50.7594 250.996 50.7594C251.426 50.7594 251.811 50.6688 252.15 50.4878C252.49 50.2992 252.776 50.0578 253.01 49.7636C253.252 49.4619 253.433 49.1224 253.553 48.7452C253.682 48.368 253.746 47.9871 253.746 47.6024C253.746 47.195 253.678 46.8027 253.542 46.4256C253.414 46.0408 253.225 45.7052 252.976 45.4185C252.735 45.1243 252.444 44.8904 252.105 44.7169C251.773 44.5434 251.403 44.4567 250.996 44.4567C250.566 44.4567 250.181 44.5472 249.842 44.7283C249.502 44.9093 249.212 45.1469 248.971 45.4411C248.737 45.7353 248.556 46.071 248.427 46.4482C248.299 46.8254 248.235 47.2101 248.235 47.6024ZM256.19 51.6193V43.5854H259.63C259.985 43.5854 260.309 43.6608 260.603 43.8117C260.905 43.955 261.162 44.1512 261.373 44.4001C261.592 44.6415 261.761 44.9168 261.882 45.2261C262.003 45.5279 262.063 45.8372 262.063 46.154C262.063 46.4331 262.022 46.7047 261.939 46.9687C261.863 47.2252 261.75 47.459 261.599 47.6703C261.456 47.8815 261.278 48.0625 261.067 48.2134C260.864 48.3643 260.633 48.4736 260.377 48.5415L262.323 51.6193H261.169L259.336 48.7339H257.209V51.6193H256.19ZM257.209 47.8287H259.642C259.853 47.8287 260.041 47.7834 260.207 47.6929C260.381 47.6024 260.528 47.4817 260.649 47.3308C260.769 47.1724 260.864 46.9913 260.931 46.7877C260.999 46.584 261.033 46.3728 261.033 46.154C261.033 45.9277 260.992 45.7165 260.909 45.5203C260.833 45.3167 260.728 45.1394 260.592 44.9885C260.464 44.8301 260.309 44.7094 260.128 44.6264C259.955 44.5359 259.77 44.4906 259.574 44.4906H257.209V47.8287ZM270.575 51.6193V45.4072L267.904 50.171H267.327L264.645 45.4072V51.6193H263.627V43.5854H264.702L267.61 48.8018L270.529 43.5854H271.593V51.6193H270.575Z" fill="#259DD9"/>
<path d="M213.889 39.4466V30.408H217.657C218.056 30.408 218.421 30.4929 218.752 30.6626C219.091 30.8239 219.38 31.0446 219.618 31.3246C219.864 31.5962 220.055 31.906 220.19 32.2539C220.326 32.5934 220.394 32.9414 220.394 33.2978C220.394 33.6713 220.331 34.0319 220.203 34.3799C220.076 34.7279 219.893 35.0376 219.656 35.3092C219.427 35.5808 219.147 35.7972 218.816 35.9585C218.493 36.1197 218.132 36.2004 217.734 36.2004H215.035V39.4466H213.889ZM215.035 35.1819H217.67C217.908 35.1819 218.12 35.1352 218.306 35.0419C218.502 34.94 218.667 34.8043 218.803 34.6345C218.939 34.4563 219.045 34.2526 219.121 34.0235C219.198 33.7943 219.236 33.5524 219.236 33.2978C219.236 33.0347 219.189 32.7886 219.096 32.5595C219.011 32.3303 218.892 32.1309 218.739 31.9611C218.595 31.7914 218.421 31.6599 218.217 31.5665C218.022 31.4731 217.814 31.4265 217.593 31.4265H215.035V35.1819ZM223.924 30.408H224.891L228.583 39.4466H227.361L226.292 36.7987H222.498L221.441 39.4466H220.219L223.924 30.408ZM226.037 35.9076L224.408 31.732L222.727 35.9076H226.037ZM229.139 30.408L231.876 35.1183L234.638 30.408H235.886L232.449 36.1494V39.4466H231.303V36.124L227.878 30.408H229.139ZM244.953 39.4466V32.4576L241.949 37.8171H241.3L238.283 32.4576V39.4466H237.137V30.408H238.346L241.618 36.2767L244.902 30.408H246.099V39.4466H244.953ZM254.399 38.4282V39.4466H248.263V30.408H254.285V31.4265H249.409V34.3545H253.648V35.3092H249.409V38.4282H254.399ZM257.117 32.5467V39.4466H255.971V30.408H256.862L262.464 37.4479V30.4208H263.609V39.4466H262.642L257.117 32.5467ZM272.286 31.4265H269.167V39.4466H268.021V31.4265H264.902V30.408H272.286V31.4265Z" fill="#259DD9"/>
<path d="M230.852 21.7583C230.852 22.5412 230.69 23.2573 230.365 23.9065C230.06 24.5558 229.63 25.1095 229.076 25.5678C228.542 26.0261 227.911 26.3794 227.186 26.6276C226.479 26.8759 225.715 27 224.894 27H215.242V6.66325H225.353C226.059 6.66325 226.699 6.81602 227.272 7.12154C227.845 7.42707 228.332 7.82808 228.733 8.32456C229.134 8.80195 229.439 9.35572 229.649 9.98587C229.878 10.5969 229.993 11.2175 229.993 11.8477C229.993 12.8598 229.735 13.7954 229.219 14.6547C228.723 15.514 228.007 16.1537 227.071 16.5738C228.236 16.9176 229.153 17.5573 229.821 18.4929C230.508 19.4095 230.852 20.498 230.852 21.7583ZM228.246 21.3C228.246 20.8417 228.16 20.4025 227.988 19.9824C227.835 19.5432 227.615 19.1613 227.329 18.8367C227.062 18.512 226.737 18.2542 226.355 18.0633C225.973 17.8723 225.553 17.7769 225.095 17.7769H217.819V24.7658H224.894C225.372 24.7658 225.811 24.6703 226.212 24.4794C226.613 24.2884 226.966 24.0402 227.272 23.7347C227.577 23.41 227.816 23.0377 227.988 22.6176C228.16 22.1975 228.246 21.7583 228.246 21.3ZM217.819 8.89743V15.6859H224.293C224.751 15.6859 225.171 15.6 225.553 15.4281C225.935 15.2371 226.26 14.9889 226.527 14.6834C226.813 14.3778 227.033 14.0246 227.186 13.6236C227.358 13.2035 227.444 12.7643 227.444 12.306C227.444 11.8286 227.367 11.3798 227.214 10.9597C227.062 10.5396 226.852 10.1768 226.584 9.8713C226.336 9.56577 226.021 9.32708 225.639 9.15522C225.276 8.98336 224.885 8.89743 224.465 8.89743H217.819ZM234.458 27V6.66325H237.036V27H234.458ZM241.899 27V6.66325H244.477V24.7085H255.82V27H241.899ZM258.626 27V6.66325H261.204V24.7085H272.547V27H258.626Z" fill="#259DD9"/>
</svg>
