<svg width="10" height="10" viewBox="0 0 10 10" fill="none" xmlns="http://www.w3.org/2000/svg">
<path d="M9.9499 4.6584H9.47011V2.45135C9.47011 1.92223 9.03965 1.49177 8.51053 1.49177H7.86071L7.19572 0.296139C7.09437 0.113415 6.90149 0 6.69231 0C6.59481 0 6.49809 0.0251436 6.41269 0.0725341L3.86059 1.49174H1.00987C0.480749 1.49174 0.050293 1.9222 0.050293 2.45132V9.04039C0.050293 9.56951 0.480749 9.99997 1.00987 9.99997H8.51053C9.03965 9.99997 9.47011 9.56951 9.47011 9.04039V7.1053H9.9499V4.6584ZM8.51053 1.87558C8.80607 1.87558 9.04751 2.10011 9.07994 2.38741H8.35872L8.07428 1.87558H8.51053ZM6.59941 0.408001C6.68942 0.357534 6.81054 0.392831 6.86023 0.482476L7.9196 2.38723H3.03996L6.59941 0.408001ZM9.08627 9.04039C9.08627 9.35782 8.82793 9.61616 8.5105 9.61616H1.00987C0.692439 9.61616 0.434106 9.35782 0.434106 9.04039V2.45135C0.434106 2.13392 0.692439 1.87558 1.00987 1.87558H3.17045L2.25003 2.38744H1.12982C1.0237 2.38744 0.937902 2.47342 0.937902 2.57937C0.937902 2.68531 1.0237 2.77129 1.12982 2.77129H1.55971H8.57214H9.08627V4.65858H7.6828C7.03103 4.65858 6.5006 5.18904 6.5006 5.84077V5.92331C6.5006 6.57507 7.03106 7.1055 7.6828 7.1055H9.08627V9.04039ZM9.56606 6.72148H9.47011H7.6828C7.24255 6.72148 6.88441 6.36338 6.88441 5.9231V5.84056C6.88441 5.40031 7.24252 5.04218 7.6828 5.04218H9.47011H9.56606V6.72148ZM8.27062 5.8976C8.27062 6.13174 8.081 6.32134 7.84689 6.32134C7.61274 6.32134 7.42315 6.13171 7.42315 5.8976C7.42315 5.66348 7.61277 5.47386 7.84689 5.47386C8.08103 5.47383 8.27062 5.66363 8.27062 5.8976Z" fill="#979797"/>
</svg>
