<svg width="39" height="39" viewBox="0 0 39 39" fill="none" xmlns="http://www.w3.org/2000/svg">
<path fill-rule="evenodd" clip-rule="evenodd" d="M19.5 39C30.2696 39 39 30.2696 39 19.5C39 8.73045 30.2696 0 19.5 0C8.73045 0 0 8.73045 0 19.5C0 30.2696 8.73045 39 19.5 39Z" fill="#F5EA86"/>
<path fill-rule="evenodd" clip-rule="evenodd" d="M32.9196 33.6484C29.4237 36.9652 24.6997 39 19.5004 39C14.3623 39 9.68826 37.0127 6.20508 33.7648C6.25815 33.599 6.31416 33.4313 6.37316 33.2631C7.00833 31.4524 7.15839 30.1206 10.4763 28.8214C13.7941 27.5223 24.2007 27.4915 28.0162 28.6758C31.8317 29.8601 32.2268 31.715 32.7636 33.1787C32.8186 33.3286 32.8706 33.4862 32.9196 33.6484L32.9196 33.6484Z" fill="#795548"/>
<path fill-rule="evenodd" clip-rule="evenodd" d="M27.3216 37.3679C24.9272 38.4175 22.2815 39 19.4997 39C16.5286 39 13.7126 38.3355 11.1924 37.147L13.1759 28.1982C16.6489 27.702 21.812 27.6913 25.3844 28.1534L27.3216 37.3679Z" fill="#3650E4"/>
<path fill-rule="evenodd" clip-rule="evenodd" d="M15.7992 27.9328C18.1649 27.774 20.8458 27.7778 23.2007 27.9415C23.2183 28.0885 23.2274 28.238 23.2274 28.3897C23.2274 30.4486 21.5583 32.1176 19.4994 32.1176C17.4405 32.1176 15.7715 30.4486 15.7715 28.3897C15.7715 28.235 15.7809 28.0825 15.7992 27.9328L15.7992 27.9328Z" fill="#795548"/>
<path fill-rule="evenodd" clip-rule="evenodd" d="M20.0916 11.7195C20.8121 12.9928 22.1236 13.8876 23.6535 14.0312C23.8362 14.7547 24.1907 15.4098 24.6711 15.9506C24.2709 16.503 23.9908 17.1481 23.869 17.8475C21.7125 18.2228 20.073 20.1038 20.073 22.3676C20.073 24.9017 22.1272 26.9559 24.6612 26.9559C26.9251 26.9559 28.806 25.3163 29.1813 23.1598C31.3378 22.7845 32.9774 20.9036 32.9774 18.6397C32.9774 17.4707 32.5402 16.4038 31.8204 15.5935C32.3678 14.8379 32.6906 13.9089 32.6906 12.9044C32.6906 10.5168 30.8669 8.55516 28.5365 8.33644C28.0343 6.34722 26.2329 4.87499 24.0877 4.87499C23.887 4.87499 23.6894 4.88787 23.4955 4.91285C22.7077 3.52057 21.2133 2.58087 19.4994 2.58087C17.7176 2.58087 16.173 3.59656 15.413 5.08056C14.9827 4.94695 14.5252 4.87499 14.0509 4.87499C11.5169 4.87499 9.46266 6.92921 9.46266 9.46323C9.46266 9.60698 9.46927 9.74918 9.48221 9.88956C7.49336 10.3921 6.02148 12.1933 6.02148 14.3382C6.02148 15.4335 6.40523 16.4391 7.0456 17.2279C6.75681 17.8287 6.59501 18.5021 6.59501 19.2132C6.59501 21.0727 7.70111 22.6738 9.29123 23.3944C9.75752 25.4341 11.5831 26.9559 13.7641 26.9559C16.2981 26.9559 18.3524 24.9017 18.3524 22.3676C18.3524 20.5082 17.2463 18.9071 15.6562 18.1864C15.4975 17.4923 15.1813 16.8581 14.7474 16.3235C15.0362 15.7228 15.198 15.0494 15.198 14.3382C15.198 14.1945 15.1913 14.0523 15.1784 13.9119C16.4698 13.5856 17.5433 12.7118 18.1373 11.5518C18.5677 11.6854 19.0251 11.7573 19.4994 11.7573C19.7001 11.7573 19.8977 11.7445 20.0916 11.7195Z" fill="#3E2723"/>
<path fill-rule="evenodd" clip-rule="evenodd" d="M12.5678 13.8559C13.3787 10.1719 16.1749 7.45587 19.4997 7.45587C22.835 7.45587 25.6383 10.1889 26.4392 13.8905C26.5373 13.8461 26.6496 13.8279 26.7787 13.8397C27.5562 13.9109 27.5462 14.9379 27.4358 16.2C27.3268 17.4457 26.8645 18.4258 26.3975 18.4116C25.7812 21.0183 24.1664 23.1213 22.0806 24.0874V28.3906C22.0806 29.8155 20.9254 30.9706 19.4997 30.9706C18.0744 30.9706 16.9189 29.8174 16.9189 28.3906V24.0874C14.8291 23.1194 13.2122 21.0104 12.5985 18.3968C12.1709 18.2698 11.7707 17.3476 11.6703 16.2C11.5598 14.9379 11.5498 13.9109 12.3273 13.8397C12.415 13.8317 12.4949 13.8375 12.5678 13.8559Z" fill="#795548"/>
<path fill-rule="evenodd" clip-rule="evenodd" d="M17.2061 20.7266C17.2061 20.7266 18.2639 19.7922 19.5514 20.1818C20.456 19.973 21.1624 20.0245 21.7943 20.711C21.4315 21.2159 21.0804 21.7656 19.5311 21.7936C17.9818 21.8216 17.2061 20.7266 17.2061 20.7266Z" fill="#EC407A"/>
<path fill-rule="evenodd" clip-rule="evenodd" d="M12.0665 13.8402C12.0665 13.8402 11.2508 4.98567 19.4378 5.16448C27.6247 5.34328 26.9336 13.8068 26.9336 13.8068C26.9336 13.8068 25.9208 13.4949 25.7965 15.4278C25.4985 15.2334 25.0439 14.7787 25.0586 14.4232C24.7697 14.4591 18.5656 14.8006 18.3525 10.972C18.109 12.0298 18.6387 13.2316 14.0588 14.4092C13.9356 14.9597 13.5979 15.2351 13.3459 15.3745C13.2921 13.4518 12.0665 13.8402 12.0665 13.8402Z" fill="#3E2723"/>
</svg>
